<svg width="415" height="400" viewBox="0 0 415 400" fill="none" xmlns="http://www.w3.org/2000/svg">
<g clip-path="url(#clip0_409_3104)">
<path d="M414.554 380.049C414.554 380.182 321.747 380.295 207.287 380.295C92.8268 380.295 0 380.182 0 380.049C0 379.917 92.789 379.803 207.287 379.803C321.784 379.803 414.554 379.917 414.554 380.049Z" fill="#263238"/>
<path d="M334.799 307.778C333.636 307.173 332.908 305.812 333.041 304.499C333.126 303.743 333.466 302.987 333.296 302.24C333.154 301.626 332.691 301.144 332.332 300.633C331.037 298.79 331.028 296.135 332.313 294.282C331.15 293.668 330.262 292.402 329.941 290.738C329.695 289.453 330.659 287.005 330.659 287.005C330.659 287.005 329.515 286.249 329.024 284.16C328.731 282.922 329.326 280.654 330.215 279.737C327.89 278.187 327.313 274.568 329.043 272.375C327.304 270.419 326.926 267.376 328.136 265.051C326.104 263.482 325.565 260.297 326.964 258.142C325.14 256.176 324.336 253.313 324.866 250.685C324.866 250.685 323.127 243.663 323.58 242.246C323.779 241.622 321.199 247.548 320.471 257.802C319.743 268.047 323.987 298.601 326.434 311.048C328.882 323.495 336.934 337.397 336.934 337.397L347.179 336.112C347.179 336.112 336.566 317.815 335.29 310.491L335.262 308.279" fill="#455A64"/>
<path d="M388.064 273.49C388.924 273.311 380.446 296.484 378.736 309.527C377.025 322.559 370.995 338.824 368.576 342.879C366.157 346.933 359.333 343.229 359.333 343.229L369.89 316.889L370.769 308.78C370.769 308.78 373.264 304.622 373.169 300.586C373.169 300.586 375.343 299.499 375.796 295.142C375.796 295.142 378.112 294.594 378.584 289.888C378.584 289.888 380.238 285.965 380.22 283.508C380.22 283.508 384.85 274.161 388.054 273.5L388.064 273.49Z" fill="#455A64"/>
<path d="M389.746 290.077C389.585 290.483 388.035 299.915 387.138 305.718C386.363 310.736 385.125 321.964 380.758 329.326C376.392 336.689 370.192 342.784 366.194 345.298C359.985 349.192 354.759 349.135 354.759 349.135L367.858 330.706C367.858 330.706 373.056 327.994 372.394 325.678L372.933 322.569C372.933 322.569 376.685 321.69 377.091 317.891C377.091 317.891 380.777 314.611 380.55 309.612C380.55 309.612 383.66 307.372 383.197 304.177C383.197 304.177 385.711 301.852 385.219 299.915C385.219 299.915 387.516 298.138 386.722 295.766L389.746 290.086V290.077Z" fill="#455A64"/>
<path d="M389.746 290.077C389.519 290.511 388.631 292.222 386.788 295.794V295.738C387.014 296.399 387.033 297.193 386.75 297.94C386.476 298.696 385.965 299.395 385.276 299.981L385.304 299.887C385.389 300.265 385.379 300.662 385.304 301.059C385.209 301.446 385.058 301.834 384.86 302.202C384.453 302.939 383.915 303.62 383.272 304.262L383.31 304.168C383.442 305.141 383.281 306.209 382.771 307.164C382.28 308.128 381.552 308.997 380.626 309.716L380.682 309.612C380.824 312.456 379.605 315.641 377.186 318.004L377.233 317.91C377.11 318.968 376.694 320.064 375.919 320.915C375.154 321.775 374.123 322.389 372.97 322.72L373.084 322.597C372.923 323.561 372.734 324.629 372.555 325.707V325.64C372.725 326.264 372.498 326.907 372.177 327.398C371.846 327.909 371.439 328.362 370.986 328.759C370.069 329.563 369.039 330.252 367.943 330.848L367.999 330.801C363.945 336.509 359.522 342.737 354.91 349.23L354.768 348.956C355.259 348.956 355.808 348.899 356.356 348.823C358.822 348.474 361.204 347.708 363.387 346.65C365.599 345.62 367.583 344.249 369.37 342.709C372.942 339.618 375.947 336.14 378.452 332.596C379.69 330.82 380.834 329.024 381.722 327.171C382.61 325.319 383.3 323.438 383.867 321.595C384.983 317.891 385.672 314.347 386.202 311.105C387.175 304.593 388.064 299.329 388.678 295.7C388.99 293.885 389.245 292.477 389.424 291.523C389.519 291.05 389.585 290.682 389.642 290.445C389.689 290.2 389.746 290.096 389.746 290.086C389.746 290.086 389.396 292.09 388.81 295.728C388.234 299.367 387.393 304.631 386.438 311.152C385.928 314.403 385.247 317.966 384.132 321.69C383.565 323.552 382.884 325.442 381.987 327.313C381.089 329.194 379.945 330.99 378.698 332.785C376.184 336.358 373.178 339.855 369.568 342.973C367.763 344.523 365.75 345.922 363.51 346.971C361.299 348.039 358.889 348.833 356.375 349.183C355.817 349.258 355.269 349.315 354.74 349.315H354.399L354.598 349.041C359.21 342.548 363.642 336.32 367.706 330.621L367.725 330.593L367.763 330.574C368.84 329.988 369.861 329.307 370.749 328.532C371.194 328.145 371.591 327.71 371.893 327.238C372.195 326.775 372.375 326.226 372.233 325.725V325.688V325.65C372.422 324.572 372.611 323.505 372.772 322.541L372.791 322.446L372.895 322.418C373.963 322.115 374.974 321.52 375.692 320.716C376.429 319.923 376.826 318.892 376.949 317.881V317.825L376.997 317.787C379.35 315.5 380.56 312.381 380.427 309.621V309.555L380.484 309.508C381.363 308.827 382.091 307.977 382.563 307.051C383.055 306.134 383.215 305.113 383.092 304.187V304.13L383.13 304.092C383.763 303.478 384.302 302.807 384.69 302.098C384.879 301.739 385.03 301.38 385.124 301.011C385.2 300.643 385.209 300.274 385.134 299.934V299.877L385.162 299.839C385.814 299.291 386.325 298.601 386.589 297.883C386.863 297.165 386.854 296.409 386.646 295.776V295.747V295.719C388.574 292.194 389.5 290.502 389.736 290.077H389.746Z" fill="#263238"/>
<path d="M341.546 219.441C341.546 219.441 335.98 228.343 335.611 243.191C335.242 258.029 338.579 319.592 338.579 319.592L342.85 332.247L350.269 330.016C350.269 330.016 345.998 289.755 345.629 283.631C345.26 277.507 343.748 253.757 342.926 245.043C342.104 236.32 340.44 220.735 341.546 219.441Z" fill="#455A64"/>
<path d="M307.249 288.564C307.249 288.564 310.028 312.315 314.781 323.268C322.824 341.83 348.256 347.841 348.256 347.841L334.798 330.243C334.798 330.243 331.122 331.708 330.205 327.304C330.205 327.304 325.244 325.47 325.612 322.711C325.612 322.711 322.125 321.794 321.388 317.843C321.388 317.843 317.163 316.464 317.711 311.691C317.711 311.691 314.838 310.935 315.424 307.419C315.424 307.419 312.267 305.368 312.787 301.512C312.787 301.512 310.736 300.047 310.916 296.541L307.249 288.555V288.564Z" fill="#455A64"/>
<path d="M307.249 288.565C307.495 289.075 308.648 291.532 310.992 296.513V296.532V296.551C310.954 297.344 311.029 298.214 311.303 299.074C311.578 299.925 312.069 300.813 312.835 301.437L312.882 301.474V301.531C312.74 302.514 312.853 303.61 313.288 304.641C313.732 305.661 314.488 306.625 315.471 307.325L315.537 307.372V307.447C315.386 308.251 315.434 309.13 315.793 309.914C316.161 310.68 316.889 311.303 317.73 311.568L317.843 311.606V311.71C317.692 312.901 317.862 314.176 318.496 315.273C319.119 316.369 320.197 317.239 321.416 317.711L321.501 317.739L321.52 317.815C321.718 318.836 322.153 319.856 322.871 320.707C323.58 321.548 324.563 322.219 325.64 322.559L325.773 322.597L325.754 322.73C325.631 323.76 326.34 324.752 327.219 325.433C328.098 326.151 329.156 326.708 330.243 327.143L330.328 327.181L330.347 327.266C330.536 328.211 330.952 329.194 331.765 329.808C332.577 330.404 333.74 330.432 334.713 330.082L334.836 330.035L334.912 330.13C339.108 335.611 343.654 341.556 348.379 347.718L348.691 348.124L348.2 347.992C347.878 347.907 347.529 347.812 347.179 347.727C342.028 346.253 337.18 344.202 332.757 341.745C328.353 339.278 324.383 336.348 321.17 332.984C317.957 329.629 315.519 325.829 314.091 321.945C312.617 318.08 311.7 314.337 310.925 310.925C309.404 304.083 308.553 298.469 307.996 294.594C307.722 292.657 307.523 291.145 307.41 290.124C307.353 289.623 307.306 289.236 307.277 288.961C307.249 288.697 307.249 288.555 307.249 288.565C307.249 288.574 307.277 288.706 307.315 288.961C307.353 289.236 307.41 289.623 307.476 290.124C307.627 291.154 307.844 292.657 308.128 294.585C308.733 298.45 309.621 304.055 311.171 310.878C311.965 314.28 312.891 318.014 314.366 321.851C315.793 325.697 318.212 329.449 321.406 332.776C324.601 336.112 328.542 339.013 332.927 341.461C337.322 343.9 342.151 345.941 347.274 347.406C347.614 347.5 347.964 347.585 348.275 347.67L348.096 347.945C343.38 341.773 338.834 335.829 334.647 330.347L334.846 330.404C333.768 330.782 332.511 330.753 331.576 330.082C330.659 329.392 330.234 328.324 330.035 327.342L330.139 327.464C329.005 327.011 327.946 326.444 327.02 325.697C326.567 325.319 326.141 324.903 325.848 324.393C325.546 323.892 325.385 323.287 325.451 322.711L325.565 322.881C324.393 322.512 323.401 321.803 322.645 320.924C321.898 320.036 321.435 318.959 321.236 317.9L321.331 318.014C320.017 317.513 318.921 316.596 318.259 315.443C317.598 314.28 317.428 312.938 317.579 311.71L317.673 311.852C316.738 311.549 315.982 310.878 315.575 310.046C315.188 309.196 315.15 308.27 315.301 307.438L315.358 307.561C314.318 306.814 313.562 305.822 313.109 304.763C312.655 303.695 312.551 302.561 312.693 301.541L312.731 301.635C311.908 300.955 311.426 300.047 311.143 299.168C310.859 298.28 310.793 297.392 310.84 296.579V296.617C308.591 291.589 307.485 289.113 307.249 288.602V288.565Z" fill="#263238"/>
<path d="M383.244 247.321C383.244 247.321 371.798 252.519 364.862 280.664C362.007 292.25 368.774 315.84 368.774 315.84L373.112 296.248C373.112 296.248 369.483 294.679 371.959 290.918C371.959 290.918 369.767 286.107 371.978 284.425C371.978 284.425 370.173 281.306 372.451 277.998C372.451 277.998 370.447 274.029 374.218 271.061C374.218 271.061 372.725 268.491 375.626 266.431C375.626 266.431 374.851 262.745 377.96 260.401C377.96 260.401 377.554 257.915 380.163 255.562L383.234 247.33L383.244 247.321Z" fill="#263238"/>
<path d="M357.868 205.444C358.312 204.565 352.49 213.137 351.564 220.367C350.638 227.606 350.269 232.984 350.269 232.984C350.269 232.984 351.413 238.012 349.598 240.308C349.598 240.308 351.989 246.82 349.598 250.449C349.598 250.449 351.517 256.573 349.598 258.964C349.598 258.964 351.611 265.088 349.598 267.196C349.598 267.196 352.282 272.46 349.598 274.946C349.598 274.946 351.517 280.21 349.211 282.119C349.211 282.119 351.602 286.57 349.211 288.555C349.211 288.555 351.318 296.957 348.058 297.911C348.058 297.911 349.268 305.283 347.179 306.238C347.179 306.238 348.53 313.222 346.045 314.753C346.045 314.753 346.716 321.454 344.996 323.079C344.996 323.079 346.338 328.06 344.618 330.356C342.898 332.653 345.62 345.582 345.62 345.582H356.441L358.293 335.81C358.293 335.81 357.528 288.914 357.339 281.259C357.15 273.604 355.619 249.098 355.619 249.098C355.619 249.098 355.137 226.51 355.042 223.835C354.948 221.151 356.384 208.374 357.868 205.434V205.444Z" fill="#455A64"/>
<path d="M367.376 230.905C367.376 230.905 362.669 247.803 365.022 265.977C367.376 284.151 371.014 307.041 368.869 320.301C367.782 327.039 365.845 333.56 364.2 338.342C362.556 343.134 359.049 347.066 354.485 349.268C354.485 349.268 349.617 342.057 350.468 338.56C351.328 335.063 354.872 329.496 354.872 329.496C354.872 329.496 358.813 323.297 357.953 319.658C357.953 319.658 360.306 316.662 359.881 313.241C359.881 313.241 362.017 308.109 360.949 305.113C360.949 305.113 363.945 301.474 362.442 297.203C362.442 297.203 363.302 295.275 362.017 291.003C362.017 291.003 361.374 284.378 359.881 282.45C359.881 282.45 361.573 278.783 359.881 275.655C359.881 275.655 361.195 272.092 359.418 269.304C359.418 269.304 360.76 266.742 359.418 263.954C359.418 263.954 360.76 261.28 359.087 259.163C359.087 259.163 359.976 255.6 359.418 253.587C359.418 253.587 360.467 250.128 359.881 248.124C359.881 248.124 360.977 245.563 361.195 243.219C361.195 243.219 363.425 241.433 362.754 238.645C362.754 238.645 364.314 238.872 364.654 235.299L367.366 230.905H367.376Z" fill="#455A64"/>
<path d="M367.375 230.905C367.205 231.188 366.412 232.502 364.701 235.328V235.309C364.644 235.895 364.559 236.547 364.323 237.208C364.2 237.539 364.049 237.879 363.803 238.172C363.557 238.456 363.208 238.72 362.754 238.711L362.83 238.626C363.009 239.354 363.009 240.195 362.745 241.026C362.48 241.849 361.979 242.643 361.251 243.276L361.28 243.219C361.119 244.778 360.656 246.442 359.966 248.152V248.086C360.202 248.956 360.174 249.872 360.079 250.799C359.975 251.725 359.786 252.661 359.512 253.606V253.549C359.739 254.428 359.73 255.354 359.654 256.299C359.569 257.244 359.418 258.208 359.191 259.182L359.172 259.087C359.664 259.72 360.004 260.543 360.032 261.412C360.079 262.282 359.9 263.17 359.531 264.011V263.907C360.297 265.476 360.372 267.555 359.531 269.37V269.237C360.665 271.024 360.731 273.5 360.013 275.711V275.598C361.081 277.583 360.968 280.229 360.013 282.516L359.994 282.365C360.429 282.951 360.684 283.641 360.911 284.33C361.128 285.02 361.317 285.739 361.469 286.476C361.781 287.941 362.007 289.453 362.168 291.003V290.974C362.442 291.92 362.688 292.931 362.801 293.989C362.905 295.057 362.962 296.163 362.584 297.278V297.165C363.019 298.431 363.151 299.868 362.858 301.276C362.584 302.684 361.97 304.045 361.072 305.236L361.1 305.075C361.525 306.37 361.45 307.797 361.214 309.186C360.968 310.576 360.561 311.965 360.032 313.326V313.241C360.306 315.443 359.503 317.834 358.085 319.781L358.114 319.639C358.378 320.896 358.161 322.181 357.84 323.391C357.499 324.61 357.027 325.792 356.469 326.935C355.921 328.079 355.278 329.213 354.598 330.29C353.936 331.387 353.294 332.511 352.698 333.655C352.103 334.808 351.545 335.98 351.082 337.208C350.978 337.52 350.865 337.823 350.78 338.134L350.647 338.607L350.581 339.07C350.515 339.382 350.581 339.703 350.581 340.025C350.638 340.346 350.666 340.667 350.742 340.989C351.035 342.265 351.536 343.503 352.103 344.703C352.679 345.903 353.322 347.084 354.031 348.228L354.456 348.908L354.57 349.079L354.626 349.164C354.834 349.23 354.371 349.135 354.437 349.126L354.484 349.107L354.844 348.927C355.316 348.691 355.779 348.417 356.233 348.143C357.14 347.585 357.981 346.943 358.766 346.243C360.344 344.845 361.667 343.191 362.678 341.376C363.727 339.58 364.304 337.567 364.947 335.611C365.57 333.645 366.156 331.68 366.676 329.723C367.706 325.801 368.576 321.898 369.01 318.032C369.426 314.158 369.407 310.33 369.285 306.606C369.01 299.159 368.226 292.099 367.442 285.512C366.648 278.925 365.788 272.8 365.069 267.205C364.871 265.807 364.758 264.436 364.606 263.094C364.484 261.752 364.427 260.448 364.351 259.172C364.276 256.63 364.257 254.229 364.351 251.98C364.521 247.491 364.966 243.644 365.429 240.526C365.892 237.407 366.393 234.997 366.761 233.381C366.941 232.568 367.101 231.954 367.215 231.547C367.272 231.349 367.309 231.198 367.347 231.084C367.375 231.008 367.385 230.961 367.394 230.923C367.347 231.15 367.186 231.85 366.837 233.39C366.487 235.016 366.015 237.416 365.57 240.544C365.126 243.663 364.71 247.51 364.559 251.99C364.474 254.229 364.493 256.62 364.587 259.163C364.673 260.429 364.729 261.733 364.862 263.066C365.013 264.399 365.136 265.769 365.334 267.168C366.071 272.763 366.941 278.887 367.754 285.474C368.557 292.061 369.351 299.121 369.634 306.587C369.767 310.32 369.785 314.158 369.37 318.061C368.935 321.964 368.065 325.867 367.035 329.799C366.515 331.765 365.929 333.73 365.306 335.706C364.663 337.662 364.077 339.694 363.009 341.537C361.979 343.389 360.628 345.071 359.021 346.499C358.218 347.207 357.358 347.869 356.441 348.436C355.978 348.719 355.515 348.994 355.033 349.23L354.673 349.419L354.626 349.438C354.626 349.438 354.182 349.305 354.371 349.353L354.314 349.268L354.201 349.098L353.766 348.408C353.057 347.255 352.405 346.064 351.819 344.845C351.243 343.625 350.732 342.368 350.439 341.055C350.364 340.724 350.326 340.384 350.269 340.053C350.269 339.713 350.213 339.373 350.269 339.023L350.345 338.513L350.477 338.031C350.562 337.709 350.685 337.397 350.789 337.085C351.252 335.838 351.819 334.657 352.424 333.494C353.029 332.332 353.672 331.207 354.333 330.111C355.023 329.024 355.647 327.927 356.195 326.784C356.743 325.65 357.216 324.487 357.547 323.297C357.868 322.115 358.066 320.877 357.821 319.715L357.802 319.639L357.849 319.573C359.21 317.702 359.994 315.367 359.739 313.279V313.231L359.749 313.194C360.268 311.87 360.675 310.491 360.911 309.13C361.138 307.778 361.213 306.389 360.817 305.189L360.788 305.104L360.845 305.028C361.695 303.903 362.3 302.561 362.565 301.21C362.849 299.858 362.726 298.478 362.319 297.269L362.3 297.222L362.319 297.155C362.65 296.182 362.622 295.048 362.508 294.027C362.395 292.987 362.159 291.995 361.885 291.06V291.031C361.724 289.5 361.497 287.988 361.195 286.542C361.043 285.814 360.864 285.105 360.646 284.425C360.429 283.754 360.174 283.083 359.786 282.554L359.739 282.488L359.777 282.403C360.703 280.2 360.817 277.62 359.786 275.74L359.758 275.692L359.777 275.636C360.476 273.5 360.41 271.09 359.333 269.398L359.295 269.341L359.323 269.275C360.127 267.555 360.06 265.533 359.323 264.039L359.295 263.992L359.323 263.935C359.673 263.151 359.853 262.282 359.805 261.459C359.777 260.628 359.465 259.862 359.002 259.267L358.964 259.219V259.163C359.2 258.208 359.361 257.254 359.446 256.318C359.522 255.392 359.531 254.475 359.323 253.643V253.615V253.587C359.588 252.661 359.777 251.725 359.89 250.818C359.994 249.91 360.013 249.003 359.796 248.181V248.152V248.124C360.476 246.442 360.949 244.778 361.119 243.247V243.219L361.147 243.2C361.837 242.595 362.338 241.82 362.603 241.026C362.858 240.233 362.867 239.42 362.697 238.711L362.678 238.626H362.773C363.132 238.645 363.482 238.409 363.709 238.144C363.945 237.87 364.096 237.539 364.219 237.218C364.455 236.566 364.54 235.932 364.616 235.346V235.328C366.374 232.54 367.196 231.235 367.366 230.961L367.375 230.905Z" fill="#263238"/>
<path d="M339.354 284.519C339.354 284.964 337.294 294.292 335.98 300.009C334.846 304.962 331.821 315.849 333.145 324.298C334.468 332.757 338.541 340.97 343.361 344.863C349.466 349.797 355.156 349.23 355.156 349.23L344.609 330.356C344.609 330.356 340.79 325.914 342.255 324.005L342.907 320.915C342.907 320.915 339.751 318.713 340.781 315.027C340.781 315.027 338.579 310.613 340.63 306.058C340.63 306.058 338.569 302.826 340.186 300.028C340.186 300.028 338.711 296.938 339.893 295.322C339.893 295.322 338.418 292.817 340.044 290.908L339.344 284.51L339.354 284.519Z" fill="#455A64"/>
<path d="M339.354 284.519C339.41 285.001 339.647 286.92 340.129 290.908V290.937L340.11 290.965C339.685 291.475 339.392 292.175 339.382 292.94C339.363 293.706 339.581 294.528 339.987 295.284L340.015 295.341L339.987 295.388C339.788 295.681 339.656 296.021 339.599 296.399C339.543 296.777 339.552 297.165 339.599 297.571C339.703 298.374 339.949 299.197 340.308 300L340.327 300.057L340.299 300.104C339.845 300.917 339.618 301.928 339.732 302.958C339.826 303.988 340.185 305.056 340.752 306.011L340.79 306.067L340.762 306.124C339.618 308.638 339.59 311.984 340.923 314.98L340.941 315.036V315.084C340.658 316.067 340.649 317.172 341.036 318.184C341.405 319.195 342.113 320.121 343.002 320.801L343.087 320.868L343.068 320.962C342.869 321.917 342.643 322.975 342.416 324.053V324.09L342.387 324.119C342.076 324.525 342.038 325.102 342.142 325.64C342.246 326.188 342.454 326.737 342.718 327.266C343.257 328.315 343.947 329.326 344.731 330.271H344.741V330.3C348.011 336.14 351.574 342.529 355.297 349.173L355.43 349.419L355.156 349.438C354.088 349.504 352.972 349.381 351.867 349.173C349.353 348.672 346.99 347.651 344.92 346.262C342.822 344.911 341.064 343.124 339.656 341.187C336.83 337.274 335.025 332.927 333.882 328.674C333.324 326.538 332.908 324.421 332.738 322.332C332.577 320.244 332.625 318.212 332.785 316.256C333.107 312.343 333.806 308.761 334.534 305.51C336.084 299.045 337.265 293.8 338.087 290.171C338.484 288.366 338.796 286.958 339.014 285.994C339.193 285.134 339.278 284.737 339.325 284.538C339.325 284.548 339.325 284.671 339.288 284.916C339.25 285.162 339.184 285.531 339.089 286.013C338.9 286.977 338.607 288.385 338.229 290.209C337.454 293.847 336.301 299.102 334.789 305.576C334.08 308.818 333.4 312.4 333.088 316.284C332.927 318.221 332.889 320.244 333.05 322.314C333.22 324.374 333.636 326.481 334.194 328.598C335.337 332.814 337.133 337.133 339.93 340.989C341.329 342.907 343.04 344.646 345.109 345.979C347.141 347.349 349.466 348.351 351.923 348.842C353.001 349.05 354.116 349.164 355.108 349.107L354.976 349.372C351.262 342.718 347.699 336.339 344.438 330.489L344.457 330.517C343.654 329.553 342.955 328.532 342.406 327.445C342.132 326.897 341.915 326.33 341.802 325.735C341.688 325.149 341.716 324.468 342.113 323.958L342.085 324.024C342.312 322.947 342.539 321.888 342.747 320.934L342.813 321.094C341.868 320.357 341.14 319.403 340.743 318.325C340.337 317.248 340.346 316.076 340.63 315.046V315.15C339.269 312.059 339.325 308.648 340.507 306.058V306.181C339.93 305.17 339.571 304.092 339.477 303.015C339.363 301.937 339.609 300.879 340.091 300.028V300.132C339.722 299.301 339.477 298.459 339.373 297.637C339.325 297.221 339.325 296.815 339.382 296.418C339.448 296.021 339.599 295.653 339.817 295.331V295.435C339.392 294.641 339.174 293.8 339.203 292.997C339.212 292.194 339.533 291.466 339.987 290.937L339.968 290.993C339.571 286.996 339.382 285.077 339.335 284.586L339.354 284.519Z" fill="#263238"/>
<path d="M374.936 380.049H327.436L321.983 343.021H380.38L374.936 380.049Z" fill="#D29D45"/>
<path d="M317.636 351.46L317.607 343.021H384.69L384.151 351.46H317.636Z" fill="#D29D45"/>
<path d="M384.151 351.46C384.151 351.583 369.237 351.687 350.846 351.687C332.455 351.687 317.541 351.583 317.541 351.46C317.541 351.337 332.455 351.233 350.846 351.233C369.237 351.233 384.151 351.337 384.151 351.46Z" fill="#263238"/>
<path d="M275.692 380.002L154.05 379.416C139.42 379.35 127.606 367.432 127.672 352.802L128.957 47.8594C129.024 33.2199 140.941 21.3968 155.581 21.463C155.59 21.463 155.609 21.463 155.618 21.463L277.223 21.9922C291.853 22.0584 303.657 33.976 303.601 48.606L302.315 353.577C302.278 368.207 290.379 380.04 275.749 380.002C275.73 380.002 275.711 380.002 275.683 380.002H275.692Z" fill="#263238"/>
<path d="M276.203 32.5583L252.66 32.4544L183.773 32.1331H175.484L154.825 32.048C144.58 32.0007 136.235 40.2608 136.178 50.5151L134.921 348.2C134.874 358.444 143.143 366.789 153.398 366.837L274.804 367.394C285.049 367.432 293.384 359.153 293.422 348.908L294.679 51.2144C294.726 40.9696 286.466 32.6245 276.212 32.5678L276.203 32.5583Z" fill="#FAFAFA"/>
<path d="M277.299 60.1928C277.299 61.0339 276.619 61.7144 275.777 61.7144C274.936 61.7144 274.256 61.0339 274.256 60.1928C274.256 59.3517 274.936 58.6712 275.777 58.6712C276.609 58.6712 277.29 59.3517 277.29 60.1928H277.299Z" fill="#263238"/>
<path d="M277.28 65.6932C277.28 66.5343 276.59 67.2054 275.749 67.2054C274.908 67.2054 274.237 66.5154 274.237 65.6743C274.237 64.8426 274.917 64.1622 275.758 64.1622C276.6 64.1622 277.28 64.8521 277.28 65.6932Z" fill="#263238"/>
<path d="M277.261 71.1275C277.261 71.9686 276.59 72.6585 275.74 72.6585C274.898 72.6585 274.208 71.9875 274.208 71.1369C274.208 70.2958 274.879 69.6059 275.73 69.6059H275.749C276.581 69.6059 277.261 70.2864 277.271 71.1275H277.261Z" fill="#263238"/>
<path d="M277.053 101.692H155.411C153.281 101.692 151.555 103.418 151.555 105.548V179.898C151.555 182.027 153.281 183.754 155.411 183.754H277.053C279.183 183.754 280.909 182.027 280.909 179.898V105.548C280.909 103.418 279.183 101.692 277.053 101.692Z" fill="#D29D45"/>
<path d="M172.857 120.433C172.857 121.482 172.025 122.096 170.428 122.096H167.3V116.019H170.258C171.78 116.019 172.555 116.652 172.555 117.597C172.564 118.165 172.252 118.684 171.751 118.939C172.432 119.119 172.895 119.743 172.866 120.442L172.857 120.433ZM168.68 117.078V118.514H170.078C170.759 118.514 171.137 118.268 171.137 117.796C171.137 117.323 170.759 117.078 170.078 117.078H168.68ZM171.449 120.291C171.449 119.781 171.052 119.535 170.324 119.535H168.68V121.038H170.324C171.052 121.038 171.449 120.811 171.449 120.291Z" fill="white"/>
<path d="M177.923 120.792H175.106L174.568 122.096H173.122L175.815 116.019H177.204L179.898 122.096H178.424L177.923 120.792ZM177.478 119.724L176.505 117.399L175.541 119.724H177.469H177.478Z" fill="white"/>
<path d="M186.136 116.019V122.096H184.973L181.949 118.41V122.096H180.56V116.019H181.722L184.737 119.705V116.019H186.126H186.136Z" fill="white"/>
<path d="M189.783 119.705L188.971 120.603V122.134H187.619V116.057H189.018V118.892L191.711 116.057H193.271L190.757 118.751L193.45 122.115H191.806L189.783 119.705Z" fill="white"/>
<path d="M171.723 145.686H170.608V147.15H170.031V145.686H166.894V145.27L169.842 141.574H170.475L167.631 145.166H170.041V143.88H170.598V145.166H171.714V145.686H171.723Z" fill="white"/>
<path d="M175.815 145.553C175.815 146.451 175.144 147.207 173.793 147.207C173.056 147.236 172.337 146.971 171.78 146.489L172.063 146.035C172.526 146.47 173.15 146.706 173.783 146.678C174.681 146.678 175.22 146.243 175.22 145.553C175.22 144.863 174.747 144.448 173.708 144.448H173.311V144.022L174.851 142.085H171.997V141.574H175.588V141.99L174.02 143.975C175.201 144.079 175.796 144.665 175.796 145.553H175.815Z" fill="white"/>
<path d="M180.323 145.515C180.323 146.461 179.671 147.207 178.301 147.207C177.564 147.236 176.855 146.971 176.297 146.489L176.581 146.035C177.044 146.47 177.658 146.706 178.282 146.678C179.237 146.678 179.737 146.224 179.737 145.534C179.737 144.844 179.293 144.372 177.866 144.372H176.685L176.968 141.574H180.021V142.085H177.469L177.271 143.88H177.989C179.671 143.862 180.305 144.523 180.305 145.515H180.323Z" fill="white"/>
<path d="M185.238 145.487C185.228 146.451 184.434 147.217 183.48 147.207C183.432 147.207 183.385 147.207 183.338 147.207C181.854 147.207 181.051 146.177 181.051 144.419C181.051 142.529 182.081 141.537 183.603 141.537C184.066 141.518 184.519 141.622 184.926 141.839L184.689 142.293C184.368 142.104 183.99 142.009 183.612 142.028C182.412 142.028 181.637 142.803 181.637 144.315V144.759C181.968 144.136 182.639 143.758 183.338 143.805C184.264 143.682 185.105 144.344 185.228 145.26C185.228 145.326 185.238 145.402 185.238 145.468V145.487ZM184.67 145.487C184.67 144.75 184.122 144.287 183.272 144.287C182.563 144.202 181.92 144.712 181.845 145.421C181.845 145.449 181.845 145.468 181.845 145.497C181.845 146.12 182.355 146.697 183.319 146.697C183.99 146.772 184.595 146.3 184.67 145.629C184.67 145.591 184.67 145.544 184.67 145.506V145.487Z" fill="white"/>
<path d="M197.278 147.15L195.945 145.402L194.603 147.15H193.97L195.634 145.005L194.055 142.964H194.688L195.945 144.599L197.202 142.964H197.826L196.248 144.977L197.921 147.122L197.278 147.15Z" fill="white"/>
<path d="M201.531 147.15L200.179 145.402L198.837 147.15H198.204L199.867 145.005L198.289 142.964H198.922L200.179 144.599L201.436 142.964H202.06L200.52 144.977L202.192 147.122L201.55 147.15H201.531Z" fill="white"/>
<path d="M205.784 147.15L204.451 145.402L203.109 147.15H202.476L204.13 145.005L202.552 142.964H203.185L204.451 144.599L205.708 142.964H206.332L204.754 144.977L206.436 147.122L205.793 147.15H205.784Z" fill="white"/>
<path d="M210.046 147.15L208.714 145.402L207.353 147.15H206.72L208.383 145.005L206.805 142.964H207.438L208.695 144.599L209.952 142.964H210.576L209.007 144.977L210.68 147.122L210.056 147.15H210.046Z" fill="white"/>
<path d="M224.714 147.151L223.381 145.402L222.039 147.151H221.406L223.06 144.977L221.491 142.935H222.125L223.381 144.57L224.638 142.935H225.3L223.674 144.977L225.357 147.122L224.714 147.151Z" fill="white"/>
<path d="M228.967 147.15L227.634 145.402L226.292 147.15H225.659L227.323 145.005L225.744 142.964H226.377L227.634 144.599L228.891 142.964H229.515L227.937 144.977L229.61 147.122L228.967 147.15Z" fill="white"/>
<path d="M233.22 147.151L231.887 145.402L230.545 147.151H229.912L231.594 144.977L230.016 142.935H230.649L231.906 144.57L233.163 142.935H233.787L232.199 144.977L233.872 147.122L233.229 147.151H233.22Z" fill="white"/>
<path d="M237.473 147.15L236.14 145.402L234.798 147.15H234.165L235.819 145.005L234.288 142.964H234.921L236.188 144.599L237.445 142.964H238.068L236.443 144.977L238.125 147.122L237.482 147.15H237.473Z" fill="white"/>
<path d="M250.657 141.574V147.15H250.08V142.085H248.757V141.574H250.648H250.657Z" fill="white"/>
<path d="M255.666 145.553C255.666 146.451 254.995 147.207 253.643 147.207C252.906 147.236 252.188 146.971 251.63 146.489L251.914 146.035C252.377 146.47 253.001 146.706 253.634 146.678C254.532 146.678 255.071 146.243 255.071 145.553C255.071 144.863 254.598 144.448 253.558 144.448H253.161V144.022L254.702 142.085H251.848V141.574H255.439V141.99L253.87 143.975C255.052 144.079 255.647 144.665 255.647 145.553H255.666Z" fill="white"/>
<path d="M261.213 145.686H260.089V147.15H259.522V145.686H256.375V145.27L259.323 141.574H259.956L257.112 145.166H259.522V143.88H260.079V145.166H261.204V145.686H261.213Z" fill="white"/>
<path d="M265.514 146.64V147.141H261.601V146.763L263.916 144.495C264.54 143.871 264.672 143.502 264.672 143.124C264.672 142.482 264.219 142.085 263.359 142.085C262.782 142.047 262.225 142.274 261.837 142.709L261.421 142.359C261.932 141.811 262.65 141.518 263.397 141.556C264.531 141.556 265.249 142.132 265.249 143.068C265.23 143.758 264.899 144.391 264.351 144.807L262.461 146.678L265.514 146.65V146.64Z" fill="white"/>
<path d="M164.03 158.718C164.03 157.962 164.625 157.348 165.381 157.339C165.41 157.339 165.447 157.339 165.476 157.339C165.892 157.32 166.289 157.499 166.563 157.802L166.166 158.17C166.005 157.972 165.759 157.858 165.504 157.858C165.032 157.858 164.654 158.236 164.654 158.709C164.654 159.181 165.032 159.559 165.504 159.559C165.759 159.559 166.005 159.446 166.166 159.248L166.563 159.607C166.289 159.928 165.892 160.108 165.466 160.079C164.71 160.117 164.068 159.541 164.03 158.785C164.03 158.756 164.03 158.728 164.03 158.699V158.718Z" fill="white"/>
<path d="M168.68 159.484H167.451L167.205 160.051H166.582L167.763 157.357H168.377L169.559 160.051H168.925L168.68 159.484ZM168.491 159.021L168.065 158L167.64 159.021H168.481H168.491Z" fill="white"/>
<path d="M171.543 160.042L171.024 159.304H170.457V160.042H169.842V157.348H170.995C171.704 157.348 172.158 157.717 172.158 158.312C172.158 158.681 171.95 159.011 171.61 159.153L172.205 160.004L171.553 160.042H171.543ZM170.957 157.887H170.457V158.785H170.957C171.336 158.785 171.525 158.614 171.525 158.321C171.525 158.028 171.336 157.887 170.957 157.887Z" fill="white"/>
<path d="M172.432 159.786L172.64 159.323C172.904 159.512 173.216 159.607 173.537 159.597C173.906 159.597 174.048 159.484 174.048 159.323C174.048 158.822 172.507 159.163 172.507 158.17C172.507 157.726 172.876 157.348 173.632 157.348C173.944 157.348 174.256 157.424 174.53 157.584L174.341 158.047C174.114 157.915 173.859 157.849 173.604 157.839C173.235 157.839 173.093 157.972 173.093 158.142C173.093 158.624 174.643 158.293 174.643 159.267C174.643 159.711 174.265 160.089 173.509 160.089C173.131 160.089 172.753 159.994 172.432 159.786Z" fill="white"/>
<path d="M178.631 157.386V160.079H178.008V158.993H176.798V160.079H176.184V157.386H176.798V158.435H178.008V157.386H178.631Z" fill="white"/>
<path d="M179.057 158.718C179.009 157.915 179.624 157.235 180.427 157.187C181.23 157.14 181.911 157.754 181.958 158.558C182.005 159.361 181.391 160.042 180.588 160.089C180.559 160.089 180.531 160.089 180.512 160.089C179.756 160.136 179.104 159.56 179.057 158.794C179.057 158.766 179.057 158.737 179.057 158.709V158.718ZM181.344 158.718C181.334 158.255 180.956 157.896 180.493 157.906C180.03 157.915 179.671 158.293 179.681 158.756C179.69 159.21 180.059 159.569 180.512 159.569C180.966 159.569 181.325 159.2 181.334 158.756C181.334 158.747 181.334 158.728 181.334 158.718H181.353H181.344Z" fill="white"/>
<path d="M182.431 157.386H183.054V159.541H184.387V160.042H182.44V157.386H182.431Z" fill="white"/>
<path d="M184.728 157.386H185.937C186.684 157.386 187.279 157.991 187.279 158.728C187.279 159.465 186.674 160.07 185.937 160.07H184.728V157.376V157.386ZM185.909 159.541C186.363 159.541 186.731 159.172 186.741 158.718C186.75 158.265 186.372 157.896 185.918 157.887H185.351V159.541H185.918H185.909Z" fill="white"/>
<path d="M189.935 159.55V160.042H187.875V157.348H189.878V157.839H188.508V158.435H189.736V158.917H188.508V159.531L189.935 159.55Z" fill="white"/>
<path d="M192.099 160.042L191.579 159.304H191.012V160.042H190.398V157.348H191.551C192.26 157.348 192.713 157.717 192.713 158.312C192.713 158.681 192.505 159.011 192.165 159.153L192.761 160.004L192.109 160.042H192.099ZM191.513 157.887H191.012V158.785H191.513C191.891 158.785 192.08 158.614 192.08 158.321C192.08 158.028 191.92 157.887 191.542 157.887H191.513Z" fill="white"/>
<path d="M201.437 166.657H164.843C164.054 166.657 163.416 167.296 163.416 168.084V168.642C163.416 169.43 164.054 170.069 164.843 170.069H201.437C202.225 170.069 202.864 169.43 202.864 168.642V168.084C202.864 167.296 202.225 166.657 201.437 166.657Z" fill="white"/>
<path d="M266.648 166.657H247.585C246.797 166.657 246.158 167.296 246.158 168.084V168.642C246.158 169.43 246.797 170.069 247.585 170.069H266.648C267.436 170.069 268.075 169.43 268.075 168.642V168.084C268.075 167.296 267.436 166.657 266.648 166.657Z" fill="white"/>
<g opacity="0.2">
<path d="M276.628 101.692H155.845C153.483 101.692 151.564 103.61 151.555 105.973V127.644C159.182 132.965 169.672 133.929 178.972 131.963C189.935 129.676 199.858 124.062 210.065 119.469C220.272 114.876 231.5 111.19 242.529 113.089C252.953 114.885 261.828 121.359 271.25 126.16C274.341 127.757 277.573 129.061 280.909 130.054V105.982C280.909 103.62 278.981 101.701 276.618 101.701L276.628 101.692Z" fill="white"/>
</g>
<path d="M258.832 113.061H252.509C250.949 113.061 249.684 114.326 249.684 115.887V122.21C249.684 123.77 250.949 125.035 252.509 125.035H258.832C260.393 125.035 261.658 123.77 261.658 122.21V115.887C261.658 114.326 260.393 113.061 258.832 113.061Z" fill="white"/>
<path d="M161.677 223.363C161.677 225.206 160.183 226.708 158.331 226.708C156.479 226.708 154.985 225.215 154.985 223.363C154.985 221.51 156.479 220.017 158.331 220.017C160.183 220.017 161.677 221.51 161.677 223.363Z" fill="#455A64"/>
<path d="M237.832 225.527H171.203C170.012 225.527 169.039 224.554 169.039 223.363C169.039 222.172 170.012 221.198 171.203 221.198H237.832C239.023 221.198 239.996 222.172 239.996 223.363C239.996 224.554 239.023 225.527 237.832 225.527Z" fill="#E0E0E0"/>
<path d="M158.331 242.784C160.179 242.784 161.677 241.286 161.677 239.439C161.677 237.591 160.179 236.093 158.331 236.093C156.483 236.093 154.985 237.591 154.985 239.439C154.985 241.286 156.483 242.784 158.331 242.784Z" fill="#455A64"/>
<path d="M196.787 241.603H171.203C170.012 241.603 169.039 240.629 169.039 239.439C169.039 238.248 170.012 237.274 171.203 237.274H196.787C197.978 237.274 198.951 238.248 198.951 239.439C198.951 240.629 197.978 241.603 196.787 241.603Z" fill="#E0E0E0"/>
<path d="M253.019 224.913H255.392C255.704 224.913 255.996 224.639 255.978 224.327C255.959 224.005 255.722 223.741 255.392 223.741H253.019C252.708 223.741 252.415 224.015 252.433 224.327C252.452 224.648 252.689 224.913 253.019 224.913Z" fill="#E0E0E0"/>
<path d="M264.502 226.141C264.115 226.491 263.557 226.689 262.811 226.727V227.852H262.319V226.737C261.847 226.708 261.393 226.614 260.977 226.463C260.552 226.302 260.221 226.103 259.985 225.848L260.268 225.291C260.495 225.517 260.798 225.697 261.166 225.848C261.535 225.999 261.922 226.085 262.329 226.113V223.542C261.875 223.429 261.506 223.315 261.204 223.183C260.902 223.06 260.656 222.871 260.457 222.626C260.259 222.38 260.155 222.058 260.155 221.652C260.155 221.151 260.335 220.726 260.703 220.386C261.072 220.045 261.61 219.847 262.329 219.781V218.656H262.82V219.771C263.189 219.781 263.548 219.847 263.898 219.951C264.247 220.055 264.55 220.197 264.805 220.376L264.559 220.953C264.294 220.783 264.011 220.65 263.709 220.556C263.406 220.461 263.113 220.405 262.82 220.386V222.975C263.302 223.089 263.699 223.211 264.001 223.334C264.304 223.457 264.569 223.637 264.776 223.882C264.984 224.128 265.088 224.459 265.088 224.865C265.088 225.366 264.899 225.792 264.512 226.141H264.502ZM261.242 222.399C261.497 222.578 261.856 222.729 262.319 222.852V220.405C261.837 220.442 261.469 220.575 261.232 220.801C260.987 221.028 260.864 221.302 260.864 221.624C260.864 221.945 260.987 222.219 261.242 222.399ZM263.973 225.725C264.238 225.508 264.361 225.234 264.361 224.903C264.361 224.553 264.228 224.289 263.964 224.109C263.699 223.93 263.312 223.788 262.811 223.656V226.103C263.321 226.066 263.718 225.933 263.973 225.725Z" fill="#E0E0E0"/>
<path d="M270.513 226.141C270.126 226.491 269.568 226.689 268.821 226.727V227.852H268.33V226.737C267.857 226.708 267.404 226.614 266.988 226.463C266.563 226.302 266.232 226.103 265.996 225.848L266.279 225.291C266.506 225.517 266.808 225.697 267.177 225.848C267.546 225.999 267.933 226.085 268.339 226.113V223.542C267.886 223.429 267.517 223.315 267.215 223.183C266.912 223.06 266.667 222.871 266.468 222.626C266.27 222.38 266.166 222.058 266.166 221.652C266.166 221.151 266.345 220.726 266.714 220.386C267.082 220.045 267.621 219.847 268.339 219.781V218.656H268.831V219.771C269.199 219.781 269.559 219.847 269.908 219.951C270.258 220.055 270.56 220.197 270.816 220.376L270.57 220.953C270.305 220.783 270.022 220.65 269.719 220.556C269.417 220.461 269.124 220.405 268.831 220.386V222.975C269.313 223.089 269.71 223.211 270.012 223.334C270.315 223.457 270.579 223.637 270.787 223.882C270.995 224.128 271.099 224.459 271.099 224.865C271.099 225.366 270.91 225.792 270.523 226.141H270.513ZM267.253 222.399C267.508 222.578 267.867 222.729 268.33 222.852V220.405C267.848 220.442 267.479 220.575 267.243 220.801C266.997 221.028 266.875 221.302 266.875 221.624C266.875 221.945 266.997 222.219 267.253 222.399ZM269.984 225.725C270.249 225.508 270.371 225.234 270.371 224.903C270.371 224.553 270.239 224.289 269.974 224.109C269.71 223.93 269.322 223.788 268.821 223.656V226.103C269.332 226.066 269.729 225.933 269.984 225.725Z" fill="#E0E0E0"/>
<path d="M158.331 319.431C160.179 319.431 161.677 317.933 161.677 316.085C161.677 314.238 160.179 312.74 158.331 312.74C156.483 312.74 154.985 314.238 154.985 316.085C154.985 317.933 156.483 319.431 158.331 319.431Z" fill="#455A64"/>
<path d="M237.832 318.25H171.203C170.012 318.25 169.039 317.276 169.039 316.086C169.039 314.895 170.012 313.921 171.203 313.921H237.832C239.023 313.921 239.996 314.895 239.996 316.086C239.996 317.276 239.023 318.25 237.832 318.25Z" fill="#E0E0E0"/>
<path d="M253.019 317.635H255.392C255.704 317.635 255.996 317.361 255.978 317.049C255.959 316.728 255.722 316.464 255.392 316.464H253.019C252.708 316.464 252.415 316.738 252.433 317.049C252.452 317.371 252.689 317.635 253.019 317.635Z" fill="#E0E0E0"/>
<path d="M264.502 318.855C264.115 319.204 263.557 319.403 262.811 319.441V320.565H262.319V319.45C261.847 319.422 261.393 319.327 260.977 319.176C260.552 319.015 260.221 318.817 259.985 318.562L260.268 318.004C260.495 318.231 260.798 318.41 261.166 318.562C261.535 318.713 261.922 318.798 262.329 318.826V316.256C261.875 316.142 261.506 316.029 261.204 315.896C260.902 315.774 260.656 315.585 260.457 315.339C260.259 315.093 260.155 314.772 260.155 314.365C260.155 313.865 260.335 313.439 260.703 313.099C261.072 312.759 261.61 312.56 262.329 312.494V311.37H262.82V312.485C263.189 312.494 263.548 312.56 263.898 312.664C264.247 312.768 264.55 312.91 264.805 313.09L264.559 313.666C264.294 313.496 264.011 313.364 263.709 313.269C263.406 313.175 263.113 313.118 262.82 313.099V315.689C263.302 315.802 263.699 315.925 264.001 316.048C264.304 316.171 264.569 316.35 264.776 316.596C264.984 316.842 265.088 317.172 265.088 317.579C265.088 318.08 264.899 318.505 264.512 318.855H264.502ZM261.242 315.112C261.497 315.292 261.856 315.443 262.319 315.566V313.118C261.837 313.156 261.469 313.288 261.232 313.515C260.996 313.742 260.864 314.016 260.864 314.337C260.864 314.658 260.987 314.933 261.242 315.112ZM263.973 318.439C264.238 318.221 264.361 317.947 264.361 317.617C264.361 317.267 264.228 317.002 263.964 316.823C263.699 316.643 263.312 316.501 262.811 316.369V318.817C263.321 318.779 263.718 318.647 263.973 318.439Z" fill="#E0E0E0"/>
<path d="M270.513 318.855C270.126 319.204 269.568 319.403 268.821 319.441V320.565H268.33V319.45C267.857 319.422 267.404 319.327 266.988 319.176C266.563 319.015 266.232 318.817 265.996 318.562L266.279 318.004C266.506 318.231 266.808 318.41 267.177 318.562C267.546 318.713 267.933 318.798 268.339 318.826V316.256C267.886 316.142 267.517 316.029 267.215 315.896C266.912 315.774 266.667 315.585 266.468 315.339C266.27 315.093 266.166 314.772 266.166 314.365C266.166 313.865 266.345 313.439 266.714 313.099C267.082 312.759 267.621 312.56 268.339 312.494V311.37H268.831V312.485C269.199 312.494 269.559 312.56 269.908 312.664C270.258 312.768 270.56 312.91 270.816 313.09L270.57 313.666C270.305 313.496 270.022 313.364 269.719 313.269C269.417 313.175 269.124 313.118 268.831 313.099V315.689C269.313 315.802 269.71 315.925 270.012 316.048C270.315 316.171 270.579 316.35 270.787 316.596C270.995 316.842 271.099 317.172 271.099 317.579C271.099 318.08 270.91 318.505 270.523 318.855H270.513ZM267.253 315.112C267.508 315.292 267.867 315.443 268.33 315.566V313.118C267.848 313.156 267.479 313.288 267.243 313.515C267.007 313.742 266.875 314.016 266.875 314.337C266.875 314.658 266.997 314.933 267.253 315.112ZM269.984 318.439C270.249 318.221 270.371 317.947 270.371 317.617C270.371 317.267 270.239 317.002 269.974 316.823C269.71 316.643 269.322 316.501 268.821 316.369V318.817C269.332 318.779 269.729 318.647 269.984 318.439Z" fill="#E0E0E0"/>
<path d="M161.677 270.069C161.677 271.912 160.183 273.415 158.331 273.415C156.479 273.415 154.985 271.921 154.985 270.069C154.985 268.217 156.479 266.723 158.331 266.723C160.183 266.723 161.677 268.217 161.677 270.069Z" fill="#455A64"/>
<path d="M237.832 272.233H171.203C170.012 272.233 169.039 271.26 169.039 270.069C169.039 268.878 170.012 267.905 171.203 267.905H237.832C239.023 267.905 239.996 268.878 239.996 270.069C239.996 271.26 239.023 272.233 237.832 272.233Z" fill="#E0E0E0"/>
<path d="M253.019 271.619H255.392C255.704 271.619 255.996 271.345 255.978 271.033C255.959 270.712 255.722 270.447 255.392 270.447H253.019C252.708 270.447 252.415 270.721 252.433 271.033C252.452 271.354 252.689 271.619 253.019 271.619Z" fill="#E0E0E0"/>
<path d="M264.502 272.848C264.115 273.197 263.557 273.396 262.811 273.434V274.558H262.319V273.443C261.847 273.415 261.393 273.32 260.977 273.159C260.552 272.999 260.221 272.8 259.985 272.545L260.268 271.988C260.495 272.214 260.798 272.394 261.166 272.545C261.535 272.696 261.922 272.781 262.329 272.81V270.239C261.875 270.126 261.506 270.012 261.204 269.88C260.902 269.757 260.656 269.568 260.457 269.322C260.259 269.077 260.155 268.755 260.155 268.349C260.155 267.848 260.335 267.423 260.703 267.083C261.072 266.742 261.61 266.544 262.329 266.478V265.353H262.82V266.468C263.189 266.478 263.548 266.544 263.898 266.648C264.247 266.752 264.55 266.894 264.805 267.073L264.559 267.65C264.294 267.48 264.011 267.347 263.709 267.253C263.406 267.158 263.113 267.101 262.82 267.083V269.672C263.302 269.786 263.699 269.908 264.001 270.031C264.304 270.154 264.569 270.334 264.776 270.579C264.984 270.825 265.088 271.156 265.088 271.562C265.088 272.063 264.899 272.488 264.512 272.838L264.502 272.848ZM261.242 269.105C261.497 269.285 261.856 269.436 262.319 269.559V267.111C261.837 267.149 261.469 267.281 261.232 267.508C260.996 267.735 260.864 268.009 260.864 268.33C260.864 268.651 260.987 268.925 261.242 269.105ZM263.973 272.432C264.238 272.214 264.361 271.94 264.361 271.61C264.361 271.26 264.228 270.995 263.964 270.816C263.699 270.636 263.312 270.494 262.811 270.362V272.81C263.321 272.772 263.718 272.64 263.973 272.432Z" fill="#E0E0E0"/>
<path d="M270.513 272.848C270.126 273.197 269.568 273.396 268.821 273.434V274.558H268.33V273.443C267.857 273.415 267.404 273.32 266.988 273.159C266.563 272.999 266.232 272.8 265.996 272.545L266.279 271.988C266.506 272.214 266.808 272.394 267.177 272.545C267.546 272.696 267.933 272.781 268.339 272.81V270.239C267.886 270.126 267.517 270.012 267.215 269.88C266.912 269.757 266.667 269.568 266.468 269.322C266.27 269.077 266.166 268.755 266.166 268.349C266.166 267.848 266.345 267.423 266.714 267.083C267.082 266.742 267.621 266.544 268.339 266.478V265.353H268.831V266.468C269.199 266.478 269.559 266.544 269.908 266.648C270.258 266.752 270.56 266.894 270.816 267.073L270.57 267.65C270.305 267.48 270.022 267.347 269.719 267.253C269.417 267.158 269.124 267.101 268.831 267.083V269.672C269.313 269.786 269.71 269.908 270.012 270.031C270.315 270.154 270.579 270.334 270.787 270.579C270.995 270.825 271.099 271.156 271.099 271.562C271.099 272.063 270.91 272.488 270.523 272.838L270.513 272.848ZM267.253 269.105C267.508 269.285 267.867 269.436 268.33 269.559V267.111C267.848 267.149 267.479 267.281 267.243 267.508C267.007 267.735 266.875 268.009 266.875 268.33C266.875 268.651 266.997 268.925 267.253 269.105ZM269.984 272.432C270.249 272.214 270.371 271.94 270.371 271.61C270.371 271.26 270.239 270.995 269.974 270.816C269.71 270.636 269.322 270.494 268.821 270.362V272.81C269.332 272.772 269.729 272.64 269.984 272.432Z" fill="#E0E0E0"/>
<path d="M161.677 254.626C161.677 256.469 160.183 257.972 158.331 257.972C156.479 257.972 154.985 256.479 154.985 254.626C154.985 252.774 156.479 251.281 158.331 251.281C160.183 251.281 161.677 252.774 161.677 254.626Z" fill="#D29D45"/>
<path d="M237.832 256.791H171.203C170.012 256.791 169.039 255.817 169.039 254.626C169.039 253.435 170.012 252.462 171.203 252.462H237.832C239.023 252.462 239.996 253.435 239.996 254.626C239.996 255.817 239.023 256.791 237.832 256.791Z" fill="#E0E0E0"/>
<path d="M251.659 255.59H254.031C254.343 255.59 254.636 255.316 254.617 255.004C254.598 254.683 254.362 254.418 254.031 254.418H251.659C251.347 254.418 251.054 254.692 251.073 255.004C251.092 255.326 251.328 255.59 251.659 255.59Z" fill="#E0E0E0"/>
<path d="M253.436 256.186V253.814C253.436 253.502 253.162 253.209 252.85 253.228C252.528 253.246 252.264 253.483 252.264 253.814V256.186C252.264 256.498 252.538 256.791 252.85 256.772C253.171 256.753 253.436 256.516 253.436 256.186Z" fill="#E0E0E0"/>
<path d="M263.151 256.819C262.763 257.169 262.206 257.367 261.459 257.405V258.529H260.968V257.414C260.495 257.386 260.041 257.291 259.626 257.14C259.2 256.98 258.87 256.781 258.633 256.526L258.917 255.968C259.144 256.195 259.446 256.375 259.815 256.526C260.183 256.677 260.571 256.762 260.977 256.79V254.22C260.523 254.106 260.155 253.993 259.852 253.861C259.55 253.738 259.304 253.549 259.106 253.303C258.907 253.057 258.803 252.736 258.803 252.33C258.803 251.829 258.983 251.403 259.352 251.063C259.72 250.723 260.259 250.525 260.977 250.458V249.334H261.469V250.449C261.837 250.458 262.196 250.525 262.546 250.629C262.896 250.732 263.198 250.874 263.453 251.054L263.208 251.63C262.943 251.46 262.659 251.328 262.357 251.233C262.055 251.139 261.762 251.082 261.469 251.063V253.653C261.951 253.766 262.348 253.889 262.65 254.012C262.952 254.135 263.217 254.314 263.425 254.56C263.633 254.806 263.737 255.137 263.737 255.543C263.737 256.044 263.548 256.469 263.16 256.819H263.151ZM259.89 253.076C260.145 253.256 260.505 253.407 260.968 253.53V251.082C260.486 251.12 260.117 251.252 259.881 251.479C259.645 251.706 259.512 251.98 259.512 252.301C259.512 252.623 259.635 252.897 259.89 253.076ZM262.622 256.403C262.886 256.186 263.009 255.912 263.009 255.581C263.009 255.231 262.877 254.966 262.612 254.787C262.347 254.607 261.96 254.466 261.459 254.333V256.781C261.969 256.743 262.366 256.611 262.622 256.403Z" fill="#E0E0E0"/>
<path d="M269.162 256.819C268.774 257.169 268.217 257.367 267.47 257.405V258.529H266.978V257.414C266.506 257.386 266.052 257.291 265.636 257.14C265.211 256.98 264.88 256.781 264.644 256.526L264.928 255.968C265.154 256.195 265.457 256.375 265.825 256.526C266.194 256.677 266.581 256.762 266.988 256.79V254.22C266.534 254.106 266.166 253.993 265.863 253.861C265.561 253.738 265.315 253.549 265.117 253.303C264.918 253.057 264.814 252.736 264.814 252.33C264.814 251.829 264.994 251.403 265.362 251.063C265.731 250.723 266.27 250.525 266.988 250.458V249.334H267.479V250.449C267.848 250.458 268.207 250.525 268.557 250.629C268.906 250.732 269.209 250.874 269.464 251.054L269.218 251.63C268.954 251.46 268.67 251.328 268.368 251.233C268.065 251.139 267.772 251.082 267.479 251.063V253.653C267.961 253.766 268.358 253.889 268.661 254.012C268.963 254.135 269.228 254.314 269.436 254.56C269.644 254.806 269.748 255.137 269.748 255.543C269.748 256.044 269.559 256.469 269.171 256.819H269.162ZM265.901 253.076C266.156 253.256 266.515 253.407 266.978 253.53V251.082C266.496 251.12 266.128 251.252 265.892 251.479C265.655 251.706 265.523 251.98 265.523 252.301C265.523 252.623 265.646 252.897 265.901 253.076ZM268.632 256.403C268.897 256.186 269.02 255.912 269.02 255.581C269.02 255.231 268.888 254.966 268.623 254.787C268.358 254.607 267.971 254.466 267.47 254.333V256.781C267.99 256.743 268.377 256.611 268.632 256.403Z" fill="#E0E0E0"/>
<path d="M275.172 256.819C274.785 257.169 274.227 257.367 273.481 257.405V258.529H272.989V257.414C272.517 257.386 272.063 257.291 271.647 257.14C271.222 256.98 270.891 256.781 270.655 256.526L270.938 255.968C271.165 256.195 271.468 256.375 271.836 256.526C272.205 256.677 272.592 256.762 272.999 256.79V254.22C272.545 254.106 272.176 253.993 271.874 253.861C271.572 253.738 271.326 253.549 271.127 253.303C270.929 253.057 270.825 252.736 270.825 252.33C270.825 251.829 271.004 251.403 271.373 251.063C271.742 250.723 272.28 250.525 272.999 250.458V249.334H273.49V250.449C273.859 250.458 274.218 250.525 274.567 250.629C274.917 250.732 275.22 250.874 275.475 251.054L275.229 251.63C274.964 251.46 274.681 251.328 274.378 251.233C274.076 251.139 273.783 251.082 273.49 251.063V253.653C273.972 253.766 274.369 253.889 274.671 254.012C274.974 254.135 275.238 254.314 275.446 254.56C275.654 254.806 275.758 255.137 275.758 255.543C275.758 256.044 275.569 256.469 275.182 256.819H275.172ZM271.912 253.076C272.167 253.256 272.526 253.407 272.989 253.53V251.082C272.507 251.12 272.139 251.252 271.902 251.479C271.666 251.706 271.534 251.98 271.534 252.301C271.534 252.623 271.657 252.897 271.912 253.076ZM274.643 256.403C274.908 256.186 275.031 255.912 275.031 255.581C275.031 255.231 274.898 254.966 274.634 254.787C274.369 254.607 273.981 254.466 273.481 254.333V256.781C273.991 256.743 274.388 256.611 274.643 256.403Z" fill="#E0E0E0"/>
<path d="M158.331 290.029C160.179 290.029 161.677 288.531 161.677 286.684C161.677 284.836 160.179 283.338 158.331 283.338C156.483 283.338 154.985 284.836 154.985 286.684C154.985 288.531 156.483 290.029 158.331 290.029Z" fill="#D29D45"/>
<path d="M237.832 288.848H171.203C170.012 288.848 169.039 287.875 169.039 286.684C169.039 285.493 170.012 284.52 171.203 284.52H237.832C239.023 284.52 239.996 285.493 239.996 286.684C239.996 287.875 239.023 288.848 237.832 288.848Z" fill="#E0E0E0"/>
<path d="M251.659 287.648H254.031C254.343 287.648 254.636 287.374 254.617 287.062C254.598 286.74 254.362 286.476 254.031 286.476H251.659C251.347 286.476 251.054 286.75 251.073 287.062C251.092 287.383 251.328 287.648 251.659 287.648Z" fill="#E0E0E0"/>
<path d="M253.436 288.243V285.871C253.436 285.559 253.162 285.266 252.85 285.285C252.528 285.304 252.264 285.54 252.264 285.871V288.243C252.264 288.555 252.538 288.848 252.85 288.829C253.171 288.81 253.436 288.574 253.436 288.243Z" fill="#E0E0E0"/>
<path d="M263.151 288.876C262.763 289.226 262.206 289.425 261.459 289.462V290.587H260.968V289.472C260.495 289.443 260.041 289.349 259.626 289.198C259.2 289.037 258.87 288.839 258.633 288.583L258.917 288.026C259.144 288.253 259.446 288.432 259.815 288.583C260.183 288.735 260.571 288.82 260.977 288.848V286.277C260.523 286.164 260.155 286.051 259.852 285.918C259.55 285.795 259.304 285.606 259.106 285.361C258.907 285.115 258.803 284.794 258.803 284.387C258.803 283.886 258.983 283.461 259.352 283.121C259.72 282.781 260.259 282.582 260.977 282.516V281.391H261.469V282.506C261.837 282.516 262.196 282.582 262.546 282.686C262.896 282.79 263.198 282.932 263.453 283.111L263.208 283.688C262.943 283.518 262.659 283.385 262.357 283.291C262.055 283.196 261.762 283.14 261.469 283.121V285.71C261.951 285.824 262.348 285.947 262.65 286.069C262.952 286.192 263.217 286.372 263.425 286.618C263.633 286.863 263.737 287.194 263.737 287.6C263.737 288.101 263.548 288.527 263.16 288.876H263.151ZM259.89 285.134C260.145 285.313 260.505 285.465 260.968 285.587V283.14C260.486 283.177 260.117 283.31 259.881 283.537C259.645 283.763 259.512 284.038 259.512 284.359C259.512 284.68 259.635 284.954 259.89 285.134ZM262.622 288.461C262.886 288.243 263.009 287.969 263.009 287.638C263.009 287.289 262.877 287.024 262.612 286.844C262.347 286.665 261.96 286.523 261.459 286.391V288.839C261.969 288.801 262.366 288.668 262.622 288.461Z" fill="#E0E0E0"/>
<path d="M269.162 288.876C268.774 289.226 268.217 289.425 267.47 289.462V290.587H266.978V289.472C266.506 289.443 266.052 289.349 265.636 289.198C265.211 289.037 264.88 288.839 264.644 288.583L264.928 288.026C265.154 288.253 265.457 288.432 265.825 288.583C266.194 288.735 266.581 288.82 266.988 288.848V286.277C266.534 286.164 266.166 286.051 265.863 285.918C265.561 285.795 265.315 285.606 265.117 285.361C264.918 285.115 264.814 284.794 264.814 284.387C264.814 283.886 264.994 283.461 265.362 283.121C265.731 282.781 266.27 282.582 266.988 282.516V281.391H267.479V282.506C267.848 282.516 268.207 282.582 268.557 282.686C268.906 282.79 269.209 282.932 269.464 283.111L269.218 283.688C268.954 283.518 268.67 283.385 268.368 283.291C268.065 283.196 267.772 283.14 267.479 283.121V285.71C267.961 285.824 268.358 285.947 268.661 286.069C268.963 286.192 269.228 286.372 269.436 286.618C269.644 286.863 269.748 287.194 269.748 287.6C269.748 288.101 269.559 288.527 269.171 288.876H269.162ZM265.901 285.134C266.156 285.313 266.515 285.465 266.978 285.587V283.14C266.496 283.177 266.128 283.31 265.892 283.537C265.655 283.763 265.523 284.038 265.523 284.359C265.523 284.68 265.646 284.954 265.901 285.134ZM268.632 288.461C268.897 288.243 269.02 287.969 269.02 287.638C269.02 287.289 268.888 287.024 268.623 286.844C268.358 286.665 267.971 286.523 267.47 286.391V288.839C267.99 288.801 268.377 288.668 268.632 288.461Z" fill="#E0E0E0"/>
<path d="M275.172 288.876C274.785 289.226 274.227 289.425 273.481 289.462V290.587H272.989V289.472C272.517 289.443 272.063 289.349 271.647 289.198C271.222 289.037 270.891 288.839 270.655 288.583L270.938 288.026C271.165 288.253 271.468 288.432 271.836 288.583C272.205 288.735 272.592 288.82 272.999 288.848V286.277C272.545 286.164 272.176 286.051 271.874 285.918C271.572 285.795 271.326 285.606 271.127 285.361C270.929 285.115 270.825 284.794 270.825 284.387C270.825 283.886 271.004 283.461 271.373 283.121C271.742 282.781 272.28 282.582 272.999 282.516V281.391H273.49V282.506C273.859 282.516 274.218 282.582 274.567 282.686C274.917 282.79 275.22 282.932 275.475 283.111L275.229 283.688C274.964 283.518 274.681 283.385 274.378 283.291C274.076 283.196 273.783 283.14 273.49 283.121V285.71C273.972 285.824 274.369 285.947 274.671 286.069C274.974 286.192 275.238 286.372 275.446 286.618C275.654 286.863 275.758 287.194 275.758 287.6C275.758 288.101 275.569 288.527 275.182 288.876H275.172ZM271.912 285.134C272.167 285.313 272.526 285.465 272.989 285.587V283.14C272.507 283.177 272.139 283.31 271.902 283.537C271.666 283.763 271.534 284.038 271.534 284.359C271.534 284.68 271.657 284.954 271.912 285.134ZM274.643 288.461C274.908 288.243 275.031 287.969 275.031 287.638C275.031 287.289 274.898 287.024 274.634 286.844C274.369 286.665 273.981 286.523 273.481 286.391V288.839C273.991 288.801 274.388 288.668 274.643 288.461Z" fill="#E0E0E0"/>
<path d="M158.331 303.828C160.179 303.828 161.677 302.33 161.677 300.482C161.677 298.634 160.179 297.136 158.331 297.136C156.483 297.136 154.985 298.634 154.985 300.482C154.985 302.33 156.483 303.828 158.331 303.828Z" fill="#D29D45"/>
<path d="M237.832 302.646H171.203C170.012 302.646 169.039 301.673 169.039 300.482C169.039 299.291 170.012 298.318 171.203 298.318H237.832C239.023 298.318 239.996 299.291 239.996 300.482C239.996 301.673 239.023 302.646 237.832 302.646Z" fill="#E0E0E0"/>
<path d="M251.659 301.455H254.031C254.343 301.455 254.636 301.181 254.617 300.87C254.598 300.548 254.362 300.284 254.031 300.284H251.659C251.347 300.284 251.054 300.558 251.073 300.87C251.092 301.191 251.328 301.455 251.659 301.455Z" fill="#E0E0E0"/>
<path d="M253.436 302.041V299.669C253.436 299.357 253.162 299.064 252.85 299.083C252.528 299.102 252.264 299.338 252.264 299.669V302.041C252.264 302.353 252.538 302.646 252.85 302.627C253.171 302.608 253.436 302.372 253.436 302.041Z" fill="#E0E0E0"/>
<path d="M263.151 302.675C262.763 303.024 262.206 303.223 261.459 303.261V304.385H260.968V303.27C260.495 303.242 260.041 303.147 259.626 302.987C259.2 302.826 258.87 302.627 258.633 302.372L258.917 301.815C259.144 302.041 259.446 302.221 259.815 302.372C260.183 302.523 260.571 302.608 260.977 302.637V300.066C260.523 299.953 260.155 299.839 259.852 299.707C259.55 299.584 259.304 299.395 259.106 299.149C258.907 298.904 258.803 298.582 258.803 298.176C258.803 297.675 258.983 297.25 259.352 296.91C259.72 296.569 260.259 296.371 260.977 296.305V295.18H261.469V296.295C261.837 296.305 262.196 296.371 262.546 296.475C262.896 296.579 263.198 296.721 263.453 296.9L263.208 297.477C262.943 297.307 262.659 297.174 262.357 297.08C262.055 296.985 261.762 296.928 261.469 296.91V299.499C261.951 299.613 262.348 299.735 262.65 299.858C262.952 299.981 263.217 300.161 263.425 300.406C263.633 300.652 263.737 300.983 263.737 301.389C263.737 301.89 263.548 302.315 263.16 302.665L263.151 302.675ZM259.89 298.932C260.145 299.112 260.505 299.263 260.968 299.386V296.938C260.486 296.976 260.117 297.108 259.881 297.335C259.645 297.562 259.512 297.836 259.512 298.157C259.512 298.478 259.635 298.752 259.89 298.932ZM262.622 302.259C262.886 302.041 263.009 301.767 263.009 301.437C263.009 301.087 262.877 300.822 262.612 300.643C262.347 300.463 261.96 300.321 261.459 300.189V302.637C261.969 302.599 262.366 302.467 262.622 302.259Z" fill="#E0E0E0"/>
<path d="M158.331 335.469C160.179 335.469 161.677 333.971 161.677 332.124C161.677 330.276 160.179 328.778 158.331 328.778C156.483 328.778 154.985 330.276 154.985 332.124C154.985 333.971 156.483 335.469 158.331 335.469Z" fill="#D29D45"/>
<path d="M237.832 334.288H171.203C170.012 334.288 169.039 333.315 169.039 332.124C169.039 330.933 170.012 329.959 171.203 329.959H237.832C239.023 329.959 239.996 330.933 239.996 332.124C239.996 333.315 239.023 334.288 237.832 334.288Z" fill="#E0E0E0"/>
<path d="M251.659 333.097H254.031C254.343 333.097 254.636 332.823 254.617 332.511C254.598 332.19 254.362 331.925 254.031 331.925H251.659C251.347 331.925 251.054 332.199 251.073 332.511C251.092 332.832 251.328 333.097 251.659 333.097Z" fill="#E0E0E0"/>
<path d="M253.436 333.683V331.311C253.436 330.999 253.162 330.706 252.85 330.725C252.528 330.744 252.264 330.98 252.264 331.311V333.683C252.264 333.995 252.538 334.288 252.85 334.269C253.171 334.25 253.436 334.014 253.436 333.683Z" fill="#E0E0E0"/>
<path d="M263.151 334.316C262.763 334.666 262.206 334.864 261.459 334.902V336.027H260.968V334.912C260.495 334.883 260.041 334.789 259.626 334.628C259.2 334.467 258.87 334.269 258.633 334.014L258.917 333.456C259.144 333.683 259.446 333.863 259.815 334.014C260.183 334.165 260.571 334.25 260.977 334.278V331.708C260.523 331.594 260.155 331.481 259.852 331.349C259.55 331.226 259.304 331.037 259.106 330.791C258.907 330.545 258.803 330.224 258.803 329.818C258.803 329.317 258.983 328.891 259.352 328.551C259.72 328.211 260.259 328.012 260.977 327.946V326.822H261.469V327.937C261.837 327.946 262.196 328.012 262.546 328.116C262.896 328.22 263.198 328.362 263.453 328.542L263.208 329.118C262.943 328.948 262.659 328.816 262.357 328.721C262.055 328.627 261.762 328.57 261.469 328.551V331.141C261.951 331.254 262.348 331.377 262.65 331.5C262.952 331.623 263.217 331.802 263.425 332.048C263.633 332.294 263.737 332.625 263.737 333.031C263.737 333.532 263.548 333.957 263.16 334.307L263.151 334.316ZM259.89 330.574C260.145 330.753 260.505 330.904 260.968 331.027V328.58C260.486 328.617 260.117 328.75 259.881 328.976C259.645 329.203 259.512 329.477 259.512 329.799C259.512 330.12 259.635 330.394 259.89 330.574ZM262.622 333.9C262.886 333.683 263.009 333.409 263.009 333.078C263.009 332.728 262.877 332.464 262.612 332.284C262.347 332.105 261.96 331.963 261.459 331.831V334.278C261.969 334.241 262.366 334.108 262.622 333.9Z" fill="#E0E0E0"/>
<path d="M253.019 239.486H255.392C255.704 239.486 255.996 239.212 255.978 238.9C255.959 238.579 255.722 238.314 255.392 238.314H253.019C252.708 238.314 252.415 238.588 252.433 238.9C252.452 239.221 252.689 239.486 253.019 239.486Z" fill="#E0E0E0"/>
<path d="M264.502 240.714C264.115 241.064 263.557 241.263 262.811 241.3V242.425H262.319V241.31C261.847 241.282 261.393 241.187 260.977 241.036C260.552 240.875 260.221 240.677 259.985 240.422L260.268 239.864C260.495 240.091 260.798 240.27 261.166 240.422C261.535 240.573 261.922 240.658 262.329 240.686V238.115C261.875 238.002 261.506 237.889 261.204 237.756C260.902 237.633 260.656 237.444 260.457 237.199C260.259 236.953 260.155 236.632 260.155 236.225C260.155 235.724 260.335 235.299 260.703 234.959C261.072 234.619 261.61 234.42 262.329 234.354V233.229H262.82V234.345C263.189 234.354 263.548 234.42 263.898 234.524C264.247 234.628 264.55 234.77 264.805 234.949L264.559 235.526C264.294 235.356 264.011 235.224 263.709 235.129C263.406 235.034 263.113 234.978 262.82 234.959V237.548C263.302 237.662 263.699 237.785 264.001 237.908C264.304 238.03 264.569 238.21 264.776 238.465C264.984 238.711 265.088 239.042 265.088 239.448C265.088 239.949 264.899 240.374 264.512 240.724L264.502 240.714ZM261.242 236.972C261.497 237.152 261.856 237.303 262.319 237.426V234.978C261.837 235.016 261.469 235.148 261.232 235.375C260.987 235.602 260.864 235.876 260.864 236.197C260.864 236.518 260.987 236.792 261.242 236.972ZM263.973 240.299C264.238 240.081 264.361 239.807 264.361 239.476C264.361 239.127 264.228 238.862 263.964 238.683C263.699 238.503 263.312 238.361 262.811 238.229V240.677C263.321 240.639 263.718 240.507 263.973 240.299Z" fill="#E0E0E0"/>
<path d="M222.541 354.431C223.44 350.611 221.072 346.784 217.251 345.885C213.43 344.986 209.604 347.355 208.705 351.176C207.806 354.997 210.175 358.823 213.995 359.722C217.816 360.621 221.642 358.252 222.541 354.431Z" fill="#F5F5F5"/>
<path d="M221.954 94.887H153.804C152.452 94.887 151.356 93.7907 151.356 92.4392C151.356 91.0878 152.452 89.9915 153.804 89.9915H221.954C223.306 89.9915 224.402 91.0878 224.402 92.4392C224.402 93.7907 223.306 94.887 221.954 94.887Z" fill="#E0E0E0"/>
<path d="M253.218 69.3885H185.067C183.716 69.3885 182.62 68.2922 182.62 66.9407C182.62 65.5892 183.716 64.4929 185.067 64.4929H253.218C254.569 64.4929 255.666 65.5892 255.666 66.9407C255.666 68.2922 254.569 69.3885 253.218 69.3885Z" fill="#E0E0E0"/>
<path d="M208.657 201.985H156.242C154.985 201.985 153.974 200.964 153.974 199.716C153.974 198.459 154.995 197.448 156.242 197.448H208.657C209.914 197.448 210.925 198.469 210.925 199.716C210.925 200.973 209.905 201.985 208.657 201.985Z" fill="#D29D45"/>
<path d="M161.695 78.811C168.183 78.811 173.443 73.5515 173.443 67.0636C173.443 60.5756 168.183 55.3161 161.695 55.3161C155.207 55.3161 149.948 60.5756 149.948 67.0636C149.948 73.5515 155.207 78.811 161.695 78.811Z" fill="#E0E0E0"/>
<path d="M161.695 66.9502C163.183 66.9502 164.388 65.7443 164.388 64.2567C164.388 62.7691 163.183 61.5632 161.695 61.5632C160.207 61.5632 159.001 62.7691 159.001 64.2567C159.001 65.7443 160.207 66.9502 161.695 66.9502Z" fill="white"/>
<path d="M155.694 72.564H167.687C167.687 72.564 166.714 68.0465 161.62 68.0465C156.96 68.0465 155.694 72.564 155.694 72.564Z" fill="white"/>
<path d="M324.752 0H266.884C261.691 0 257.48 4.21016 257.48 9.40365V67.2715C257.48 72.465 261.691 76.6752 266.884 76.6752H324.752C329.945 76.6752 334.156 72.465 334.156 67.2715V9.40365C334.156 4.21016 329.945 0 324.752 0Z" fill="#D29D45"/>
<path d="M295.823 13.5526L274.275 27.5494V30.3374L317.362 30.4697V27.5494L295.823 13.5526Z" fill="white"/>
<path d="M282.771 31.8023H274.615V33.0971H282.771V31.8023Z" fill="white"/>
<path d="M282.771 54.475H274.615V55.7698H282.771V54.475Z" fill="white"/>
<path d="M281.656 32.4449H275.739V55.1271H281.656V32.4449Z" fill="white"/>
<path d="M299.783 31.8023H291.626V33.0971H299.783V31.8023Z" fill="white"/>
<path d="M299.783 54.475H291.626V55.7698H299.783V54.475Z" fill="white"/>
<path d="M298.658 32.4449H292.742V55.1271H298.658V32.4449Z" fill="white"/>
<path d="M317.361 31.8023H309.205V33.0971H317.361V31.8023Z" fill="white"/>
<path d="M317.361 54.475H309.205V55.7698H317.361V54.475Z" fill="white"/>
<path d="M316.246 32.4449H310.33V55.1271H316.246V32.4449Z" fill="white"/>
<path d="M319.658 57.0835H271.978V59.5691H319.658V57.0835Z" fill="white"/>
<path d="M323.041 60.637H268.595V63.1226H323.041V60.637Z" fill="white"/>
<path d="M295.7 24.8086C297.59 24.8086 299.121 23.2769 299.121 21.3874C299.121 19.4979 297.59 17.9662 295.7 17.9662C293.811 17.9662 292.279 19.4979 292.279 21.3874C292.279 23.2769 293.811 24.8086 295.7 24.8086Z" fill="#E0E0E0"/>
<path d="M282.988 33.0876C282.988 33.22 281.117 33.3334 278.811 33.3334C276.505 33.3334 274.634 33.22 274.634 33.0876C274.634 32.9553 276.505 32.8419 278.811 32.8419C281.117 32.8419 282.988 32.9553 282.988 33.0876Z" fill="#263238"/>
<path d="M299.972 33.0876C299.972 33.22 298.101 33.3334 295.794 33.3334C293.488 33.3334 291.617 33.22 291.617 33.0876C291.617 32.9553 293.488 32.8419 295.794 32.8419C298.101 32.8419 299.972 32.9553 299.972 33.0876Z" fill="#263238"/>
<path d="M317.465 33.0876C317.465 33.22 315.594 33.3334 313.288 33.3334C310.982 33.3334 309.111 33.22 309.111 33.0876C309.111 32.9553 310.982 32.8419 313.288 32.8419C315.594 32.8419 317.465 32.9553 317.465 33.0876Z" fill="#263238"/>
<path d="M282.988 54.4372C282.988 54.5695 281.117 54.6829 278.811 54.6829C276.505 54.6829 274.634 54.5695 274.634 54.4372C274.634 54.3049 276.505 54.1915 278.811 54.1915C281.117 54.1915 282.988 54.3049 282.988 54.4372Z" fill="#263238"/>
<path d="M299.972 54.4372C299.972 54.5695 298.101 54.6829 295.794 54.6829C293.488 54.6829 291.617 54.5695 291.617 54.4372C291.617 54.3049 293.488 54.1915 295.794 54.1915C298.101 54.1915 299.972 54.3049 299.972 54.4372Z" fill="#263238"/>
<path d="M317.465 54.4372C317.465 54.5695 315.594 54.6829 313.288 54.6829C310.982 54.6829 309.111 54.5695 309.111 54.4372C309.111 54.3049 310.982 54.1915 313.288 54.1915C315.594 54.1915 317.465 54.3049 317.465 54.4372Z" fill="#263238"/>
<path d="M317.484 27.5872C317.484 27.7195 307.816 27.8329 295.899 27.8329C283.981 27.8329 274.303 27.7195 274.303 27.5872C274.303 27.4549 283.972 27.3415 295.899 27.3415C307.826 27.3415 317.484 27.4549 317.484 27.5872Z" fill="#263238"/>
<path d="M55.0609 125.517L48.1806 124.686C36.0267 132.804 19.5916 129.534 11.4733 117.38C3.35497 105.226 6.62499 88.7912 18.7788 80.6729C30.9327 72.5546 47.3678 75.8246 55.4862 87.9784C61.6103 97.1364 61.4119 109.139 54.9947 118.098L55.0703 125.527L55.0609 125.517Z" fill="white"/>
<path d="M55.0608 125.517V123.571C55.0608 122.304 54.9946 120.442 54.9568 118.08L55.1175 118.155C55.1175 118.155 55.023 118.193 54.9852 118.155C54.9852 118.155 54.9568 118.07 54.9852 118.023C57.4708 114.535 59.0585 110.5 59.6161 106.256C59.9847 103.487 59.9091 100.671 59.3987 97.9208C58.8033 94.802 57.6503 91.8061 55.9964 89.1031C54.8245 86.8065 52.8304 84.6517 48.861 81.4668C45.7894 79.2269 42.2453 77.6959 38.5122 76.9965C34.5334 76.2593 30.4412 76.4294 26.538 77.5068C22.4363 78.6504 18.6843 80.7958 15.6222 83.7539C14.0344 85.2282 12.6357 86.901 11.4543 88.7251C10.9251 89.6513 10.4147 90.568 9.91381 91.5131L9.29005 92.9685L8.98762 93.6868L8.75135 94.4334C7.49438 98.3177 7.13525 102.448 7.71175 106.493C8.2599 110.301 9.64919 113.931 11.7945 117.125C15.5276 122.814 21.3211 126.841 27.9556 128.353L30.1387 128.731C30.857 128.844 31.5753 128.854 32.2179 128.929C33.5694 129.014 34.9209 128.986 36.2629 128.844C40.5064 128.438 44.5892 127.011 48.1616 124.676H48.2278L53.3029 125.347L54.6355 125.536L55.108 125.612H54.6733L53.3596 125.48L48.2183 124.913H48.2845C44.712 127.323 40.6009 128.825 36.3196 129.279C34.9587 129.43 33.5883 129.468 32.2274 129.383C31.5186 129.317 30.8003 129.307 30.0726 129.203L27.8516 128.825C24.6856 128.116 21.6707 126.841 18.9583 125.054C15.9435 123.022 13.3634 120.404 11.3787 117.371C9.19554 114.129 7.76846 110.434 7.21085 106.568C6.61545 102.448 6.97458 98.2516 8.25045 94.2916L8.48673 93.5356L8.79861 92.7984C9.01598 92.307 9.2239 91.7588 9.43182 91.3241C9.90436 90.3412 10.4714 89.415 10.9912 88.4699C12.1726 86.6175 13.5713 84.9258 15.1591 83.4042C18.2779 80.4083 22.096 78.244 26.2639 77.091C30.2711 75.9663 34.4862 75.7773 38.5879 76.5429C42.3966 77.2611 45.9879 78.8205 49.1067 81.1171C51.9892 83.2057 54.4276 85.852 56.2894 88.8857C57.9622 91.6454 59.1247 94.6791 59.7201 97.8546C60.221 100.643 60.2777 103.497 59.8996 106.304C59.3042 110.585 57.6598 114.649 55.1175 118.146L54.9757 118.023C54.9757 118.023 55.0702 117.985 55.108 118.023C55.108 118.042 55.108 118.07 55.108 118.089V125.054C55.108 125.432 55.0986 125.527 55.0986 125.527L55.0608 125.517Z" fill="#263238"/>
<path d="M21.8599 104.31L25.1582 100.766L31.9723 106.427L44.5231 93.4978L47.812 96.8151L31.7077 113.052L21.8599 104.31Z" fill="#D29D45"/>
<path d="M128.854 342.576H45.8086V348.341H128.854V342.576Z" fill="#AE7461"/>
<path d="M132.02 305.708L137.983 379.851H132.02L123.4 305.708H132.02Z" fill="#AE7461"/>
<path d="M144.552 207.939C137.615 199.064 127.134 194.774 116.86 192.08C107.258 189.566 97.4389 188.177 87.5816 187.874V187.808C87.1657 187.808 86.7499 187.837 86.334 187.846C85.9182 187.846 85.5024 187.818 85.0865 187.808V187.874C75.2292 188.177 65.4003 189.566 55.8076 192.08C45.5345 194.774 35.0534 199.064 28.1165 207.939C19.0247 219.573 12.9761 240.459 16.9928 255.231C21.0094 270.003 26.3775 286.703 34.5431 299.159L86.334 291.286L140.686 299.159C143.039 295.983 148.871 267.357 152.878 252.575C156.894 237.804 153.634 219.573 144.542 207.939H144.552Z" fill="#455A64"/>
<path d="M133.986 305.708H40.658C35.8947 305.708 32.0293 301.843 32.0293 297.08C32.0293 292.316 35.8947 288.451 40.658 288.451H133.986C138.749 288.451 142.614 292.316 142.614 297.08C142.614 301.843 138.749 305.708 133.986 305.708Z" fill="#455A64"/>
<path d="M135.328 288.602C135.328 288.734 114.006 288.848 87.7139 288.848C61.4215 288.848 40.0908 288.734 40.0908 288.602C40.0908 288.47 61.4026 288.356 87.7139 288.356C114.025 288.356 135.328 288.47 135.328 288.602Z" fill="#263238"/>
<path d="M44.3813 305.708L38.4272 379.851H44.3813L53.0005 305.708H44.3813Z" fill="#AE7461"/>
<path d="M45.8652 210.377C45.8652 210.377 45.3549 210.802 44.4287 211.549C43.4931 212.296 42.1983 213.43 40.7334 214.989C37.8131 218.061 34.3729 223.032 32.634 229.317C30.895 235.592 31.273 241.631 32.1898 245.771C32.6434 247.85 33.1727 249.504 33.5885 250.619C34.0044 251.744 34.2501 252.349 34.2123 252.367C34.1934 252.367 34.1178 252.226 33.976 251.942C33.8437 251.659 33.6263 251.243 33.409 250.685C32.9364 249.579 32.3505 247.935 31.8496 245.846C30.8289 241.688 30.3847 235.564 32.152 229.184C33.9193 222.814 37.4634 217.787 40.4782 214.753C41.9809 213.222 43.3324 212.107 44.3058 211.407C44.7784 211.039 45.1848 210.802 45.44 210.623C45.7046 210.453 45.8463 210.368 45.8558 210.387L45.8652 210.377Z" fill="#263238"/>
<path d="M47.8123 289.831C47.8123 289.831 47.7272 289.651 47.6233 289.292C47.5004 288.876 47.3492 288.356 47.1696 287.714C46.7727 286.277 46.2245 284.312 45.563 281.902C44.2115 276.997 42.3591 270.211 39.9586 262.83C39.3632 260.987 38.7111 259.21 37.8889 257.594C37.0572 255.987 36.0459 254.532 34.789 253.483C33.5414 252.405 32.0387 251.81 30.5928 251.621C29.1373 251.46 27.7575 251.668 26.5478 252.008C24.1283 252.727 22.3516 253.804 21.1229 254.503C20.5464 254.844 20.0834 255.127 19.7148 255.344C19.3934 255.533 19.2233 255.628 19.2139 255.619C19.2139 255.609 19.3556 255.486 19.6675 255.259C19.9699 255.042 20.4236 254.721 21.0284 254.333C22.2287 253.577 23.996 252.443 26.4627 251.668C27.6913 251.3 29.1184 251.054 30.6495 251.205C32.1711 251.394 33.7683 251.999 35.0819 253.124C36.424 254.22 37.473 255.732 38.3236 257.367C39.1742 259.011 39.8357 260.817 40.4311 262.669C42.8411 270.069 44.6368 276.874 45.9032 281.807C46.5081 284.236 46.9995 286.211 47.3587 287.657C47.5099 288.309 47.6327 288.838 47.7272 289.254C47.8028 289.623 47.8407 289.812 47.8217 289.821L47.8123 289.831Z" fill="#263238"/>
<path d="M123.278 210.065C123.278 210.065 123.438 210.122 123.713 210.283C123.987 210.443 124.402 210.661 124.894 210.991C125.905 211.634 127.323 212.655 128.92 214.101C132.114 216.945 135.961 221.737 138.116 227.994C140.271 234.25 140.204 240.393 139.439 244.608C139.07 246.725 138.588 248.407 138.182 249.532C138.002 250.099 137.804 250.524 137.69 250.827C137.568 251.12 137.501 251.271 137.483 251.262C137.445 251.243 137.662 250.619 138.002 249.475C138.352 248.332 138.777 246.659 139.099 244.552C139.77 240.365 139.779 234.316 137.653 228.154C135.526 221.992 131.793 217.238 128.684 214.356C127.134 212.9 125.763 211.842 124.79 211.152C123.817 210.462 123.259 210.103 123.278 210.065Z" fill="#263238"/>
<path d="M126.217 289.481C126.217 289.481 126.217 289.283 126.273 288.914C126.34 288.489 126.434 287.96 126.548 287.298C126.822 285.833 127.19 283.82 127.644 281.363C128.608 276.363 129.988 269.455 131.935 261.922C132.417 260.032 132.974 258.199 133.721 256.507C134.477 254.815 135.431 253.256 136.698 252.074C137.945 250.874 139.505 250.165 141.007 249.882C142.529 249.636 143.966 249.787 145.213 250.08C147.718 250.704 149.551 251.734 150.799 252.415C151.422 252.764 151.895 253.048 152.216 253.256C152.538 253.454 152.698 253.568 152.689 253.587C152.689 253.606 152.5 253.52 152.169 253.341C151.791 253.142 151.309 252.897 150.714 252.585C149.447 251.961 147.604 250.988 145.138 250.421C143.909 250.156 142.52 250.024 141.083 250.279C139.656 250.562 138.191 251.243 137.01 252.396C135.809 253.53 134.893 255.042 134.165 256.696C133.437 258.359 132.899 260.164 132.417 262.045C130.47 269.559 129.043 276.448 127.984 281.429C127.464 283.877 127.048 285.871 126.737 287.326C126.585 287.978 126.472 288.508 126.377 288.924C126.292 289.292 126.236 289.481 126.217 289.472V289.481Z" fill="#263238"/>
<path d="M119.025 180.144C119.025 180.144 96.6169 171.685 96.0026 171.685C95.3883 171.685 76.0328 171.865 75.4185 171.713C74.8042 171.562 52.311 182.298 52.311 182.298L53.3034 215.566L59.5882 236.518L58.6242 248.587L74.7758 249.778L115.349 245.61C115.349 245.61 113.203 236.065 113.052 235.611C112.901 235.148 119.025 180.153 119.025 180.153V180.144Z" fill="#D29D45"/>
<path d="M99.6126 180.078C99.6126 180.078 99.3102 180.285 98.7243 180.588C98.4313 180.739 98.0721 180.919 97.6374 181.089C97.2027 181.268 96.7207 181.486 96.1536 181.656C95.0479 182.053 93.6775 182.402 92.1464 182.677C90.6059 182.932 88.8953 183.092 87.0996 183.073C85.2945 183.045 83.5934 182.837 82.0623 182.544C80.5407 182.223 79.1798 181.845 78.0835 181.41C77.5259 181.221 77.0439 180.994 76.6186 180.805C76.1839 180.626 75.8342 180.437 75.5412 180.276C74.9647 179.964 74.6528 179.775 74.6717 179.747C74.7095 179.662 75.9948 180.352 78.1969 181.089C79.2932 181.467 80.6352 181.807 82.1474 182.1C83.6595 182.365 85.3418 182.554 87.1091 182.582C88.8764 182.591 90.5587 182.45 92.0803 182.232C93.5924 181.977 94.9439 181.675 96.0496 181.325C98.2706 180.645 99.5748 179.992 99.6126 180.078Z" fill="#263238"/>
<path d="M134.874 318.231L144.684 341.026L157.642 356.819C158.577 357.953 158.35 359.645 157.15 360.505C156.479 360.987 155.629 361.11 154.844 360.835C149.892 359.106 131.699 352.67 131.075 350.959C130.357 348.984 119.139 327.606 119.139 327.606L134.884 318.24L134.874 318.231Z" fill="#263238"/>
<path d="M157.15 360.505L130.376 349.438L130.811 350.392C131.189 351.215 131.841 351.886 132.673 352.273C134.875 353.303 141.018 356.006 154.778 360.873C155.582 361.157 156.47 361.015 157.15 360.505Z" fill="#E0E0E0"/>
<g opacity="0.6">
<path d="M132.351 342.614C133.098 342.746 133.674 343.521 133.57 344.268C133.438 345.27 132.096 345.988 131.236 345.109C130.47 344.334 130.744 342.926 131.784 342.624C132.03 342.557 132.276 342.548 132.493 342.643" fill="white"/>
</g>
<path d="M146.357 352.027C146.508 352.065 146.764 350.666 148.039 349.655C149.287 348.606 150.705 348.634 150.705 348.483C150.705 348.417 150.364 348.304 149.778 348.351C149.202 348.398 148.399 348.663 147.699 349.23C147 349.797 146.575 350.534 146.414 351.092C146.244 351.649 146.291 352.018 146.357 352.027Z" fill="white"/>
<path d="M149.637 354.692C149.788 354.74 150.176 353.672 151.187 352.812C152.179 351.923 153.285 351.678 153.257 351.517C153.266 351.375 151.962 351.394 150.828 352.396C149.675 353.388 149.486 354.683 149.637 354.692Z" fill="white"/>
<path d="M142.095 349.636C142.237 349.721 143.115 348.219 144.826 347.018C146.518 345.799 148.228 345.459 148.191 345.298C148.191 345.156 146.329 345.27 144.514 346.584C142.69 347.869 141.972 349.608 142.104 349.646L142.095 349.636Z" fill="white"/>
<path d="M139.798 345.478C139.921 345.582 140.932 344.495 142.52 343.692C144.108 342.869 145.582 342.69 145.563 342.529C145.573 342.387 143.976 342.321 142.274 343.21C140.564 344.079 139.675 345.412 139.798 345.478Z" fill="white"/>
<path d="M59.0307 241.471C59.0307 241.471 45.1568 261.714 45.8372 272.167C46.5177 282.629 50.3831 288.772 50.3831 288.772H69.937C69.937 288.772 84.3591 270.579 84.3591 270.806C84.3591 270.806 122.805 341.953 123.032 341.499C123.259 341.045 145.573 332.766 144.892 332.766C144.212 332.766 119.025 263.019 109.735 248.304C100.766 234.099 92.2223 239.665 85.3987 241.48L75.617 247.396L59.0118 241.48L59.0307 241.471Z" fill="#263238"/>
<path d="M114.517 244.882C115.198 244.882 130.896 262.848 129.979 272.857C129.062 282.865 122.267 291.277 122.267 291.277L100.067 297.023C100.067 297.023 91.1545 371.628 92.1563 371.647L66.6294 371.316C66.6294 371.316 70.5988 297.59 70.1451 289.179C69.6915 280.767 74.3791 271.146 84.3687 270.806L101.513 242.51L114.517 244.882Z" fill="#263238"/>
<path d="M106.436 245.563C106.436 245.563 106.578 245.648 106.833 245.837C107.089 246.026 107.457 246.319 107.939 246.725C108.884 247.529 110.274 248.757 111.805 250.581C112.57 251.498 113.373 252.566 114.044 253.861C114.215 254.182 114.356 254.532 114.517 254.872C114.649 255.231 114.772 255.6 114.904 255.978C115.16 256.715 115.396 257.499 115.708 258.284C116.87 261.469 118.288 265.079 119.847 269.086C126.113 285.105 135.016 307.4 145.138 332.643L145.232 332.87L145.006 332.955C139.949 334.902 134.647 336.953 129.251 339.032C127.124 339.855 125.017 340.667 122.976 341.452L122.777 341.527L122.673 341.338C107.117 312.787 93.3564 287.553 84.2552 270.844L84.3875 270.929C82.3745 270.882 80.437 271.241 78.8304 272.044C77.2143 272.848 75.91 273.991 74.9271 275.229C72.9425 277.715 72.0068 280.342 71.3831 282.45C70.7782 284.576 70.523 286.268 70.3624 287.402C70.2962 287.96 70.2489 288.394 70.2206 288.697C70.1922 288.99 70.1733 289.141 70.1733 289.141C70.1733 289.141 70.1733 288.99 70.1733 288.697C70.1828 288.404 70.2206 287.969 70.2773 287.393C70.4096 286.249 70.6364 284.548 71.2224 282.402C71.8272 280.276 72.7345 277.62 74.7381 275.078C75.7305 273.812 77.0536 272.63 78.7075 271.799C80.3614 270.967 82.3461 270.57 84.397 270.617H84.482L84.5293 270.702C93.6683 287.383 107.485 312.589 123.108 341.102L122.805 340.989C124.856 340.195 126.964 339.382 129.081 338.569C134.477 336.49 139.779 334.449 144.835 332.502L144.694 332.823C134.591 307.561 125.745 285.247 119.554 269.2C118.014 265.183 116.625 261.563 115.481 258.369C115.179 257.575 114.942 256.781 114.687 256.034C114.564 255.666 114.451 255.297 114.319 254.948C114.158 254.607 114.026 254.267 113.865 253.946C113.213 252.66 112.428 251.593 111.682 250.676C110.179 248.842 108.818 247.604 107.892 246.773C107.429 246.357 107.06 246.054 106.824 245.856C106.578 245.648 106.455 245.544 106.455 245.544L106.436 245.563Z" fill="#455A64"/>
<path d="M72.6399 352.556L71.2506 377.327L64.5026 396.607C64.0206 397.996 64.8051 399.509 66.2227 399.896C67.0166 400.113 67.8577 399.943 68.5004 399.414C72.5643 396.097 87.44 383.801 87.44 381.987C87.44 379.879 90.6438 355.949 90.6438 355.949L72.6399 352.547V352.556Z" fill="#263238"/>
<path d="M66.2227 399.896L87.5722 380.314L87.4872 381.363C87.4116 382.27 87.0241 383.121 86.3909 383.763C84.6708 385.483 79.832 390.133 68.5759 399.423C67.9238 399.962 67.0354 400.142 66.2227 399.896Z" fill="#E0E0E0"/>
<path d="M73.4431 388.234C73.3107 388.319 72.5925 387.099 71.0425 386.589C69.5115 386.031 68.1884 386.551 68.1411 386.4C68.1127 386.343 68.3963 386.117 68.9633 385.956C69.5209 385.805 70.3715 385.776 71.2221 386.069C72.0727 386.362 72.7248 386.91 73.065 387.374C73.4147 387.846 73.4998 388.205 73.4431 388.234Z" fill="white"/>
<path d="M71.2788 391.863C71.156 391.957 70.4188 391.097 69.1713 390.625C67.9332 390.133 66.8086 390.275 66.7802 390.124C66.7235 389.991 67.9521 389.557 69.3698 390.124C70.7874 390.663 71.4111 391.816 71.2788 391.872V391.863Z" fill="white"/>
<path d="M76.6376 384.519C76.5337 384.652 75.1917 383.537 73.1786 382.998C71.175 382.431 69.455 382.695 69.4266 382.535C69.3699 382.412 71.1656 381.873 73.3204 382.478C75.4752 383.064 76.751 384.444 76.6376 384.519Z" fill="white"/>
<path d="M77.3654 379.832C77.2898 379.974 75.9666 379.293 74.1899 379.095C72.4226 378.868 70.9766 379.208 70.9293 379.047C70.8726 378.924 72.3469 378.31 74.256 378.556C76.1651 378.783 77.4504 379.728 77.3654 379.841V379.832Z" fill="white"/>
<path d="M92.2033 371.496C92.2033 371.628 86.4666 371.742 79.3973 371.742C72.328 371.742 66.5913 371.628 66.5913 371.496C66.5913 371.364 72.3186 371.25 79.3973 371.25C86.476 371.25 92.2033 371.364 92.2033 371.496Z" fill="#455A64"/>
<path d="M68.4532 248.143C68.491 248.209 67.5081 248.861 65.977 249.986C64.4365 251.11 62.3668 252.727 60.2309 254.683C58.095 256.649 56.3087 258.567 55.0518 260.004C53.8043 261.44 53.0671 262.357 53.0009 262.31C52.9726 262.291 53.1238 262.036 53.4262 261.592C53.7286 261.147 54.1823 260.524 54.7777 259.777C55.9685 258.274 57.7358 256.299 59.8906 254.314C62.0454 252.339 64.1719 250.751 65.7691 249.693C66.563 249.164 67.2245 248.757 67.6971 248.502C68.1602 248.237 68.4342 248.105 68.4437 248.133L68.4532 248.143Z" fill="#455A64"/>
<path d="M52.3203 182.308C51.5548 182.242 33.3146 192.685 50.9972 222.068C66.7046 248.171 73.7928 251.829 80.3234 252.519C86.8539 253.209 89.16 247.434 87.8746 244.315C86.646 241.319 67.3945 210.009 67.9521 209.451C67.9521 209.451 56.2708 182.658 52.3203 182.317V182.308Z" fill="#D29D45"/>
<path d="M119.025 180.144C119.488 180.295 129.137 184.737 127.909 194.849C126.68 204.962 114.11 247.396 111.663 249.542C109.215 251.687 105.983 251.073 102.542 250.156C99.1024 249.239 96.4845 246.187 96.2671 242.501C96.0497 238.815 110.443 202.202 110.595 201.739C110.746 201.276 119.015 180.144 119.015 180.144H119.025Z" fill="#D29D45"/>
<path d="M87.1093 205.047H100.539C102.089 205.047 103.355 206.304 103.355 207.863V237.974C103.355 239.524 102.098 240.79 100.539 240.79H87.1093C85.5594 240.79 84.293 239.533 84.293 237.974V207.873C84.293 206.323 85.5499 205.056 87.1093 205.056V205.047Z" fill="#263238"/>
<path d="M74.3979 241.754C74.4451 241.376 75.3052 235.186 76.2125 232.313C77.1197 229.44 87.3362 220.981 88.8389 220.679C90.3416 220.376 90.3416 221.283 90.0391 222.418C89.7367 223.552 82.1193 231.538 82.8659 232.01C83.9811 232.719 83.5936 233.428 84.2268 233.069C84.964 232.653 95.6341 226.425 97.5998 226.047C99.5656 225.669 99.7925 227.03 98.734 228.466L97.6755 229.903C97.6755 229.903 98.8568 229.222 100.076 230.432C101.295 231.642 96.2389 235.044 96.2389 235.044C96.2389 235.044 96.6926 235.951 95.4829 237.539C94.2731 239.127 89.6705 245.553 88.3096 246.489C86.9487 247.434 84.3024 246.829 84.3024 246.829C84.3024 246.829 82.6391 248.114 80.9001 248.19C79.1611 248.266 74.0955 244.013 74.4073 241.773L74.3979 241.754Z" fill="#AE7461"/>
<path d="M93.3562 220.622C93.6586 220.603 103.1 222.796 104.159 223.778C105.217 224.761 109.593 233.522 109.593 233.522C109.593 233.522 111.407 234.959 111.634 236.547C111.861 238.134 110.954 245.61 107.4 245.61C107.022 245.61 101.181 245.308 100.246 245.081C99.3102 244.854 93.3467 240.365 93.3467 240.365L94.5281 238.777C94.5281 238.777 87.8368 235.195 86.4759 234.392C85.115 233.589 84.4912 231.311 85.871 231.32C87.2509 231.339 99.4709 235.932 99.4709 235.932C99.4709 235.932 87.6951 230.422 87.317 228.835C86.9295 227.247 88.8197 225.962 90.0294 226.491C91.2392 227.02 100.151 231.557 101.588 231.632C103.024 231.708 103.176 230.952 103.176 230.952L100.255 227.02C100.255 227.02 93.3562 223.618 92.7513 222.786C92.1464 221.954 93.3562 220.612 93.3562 220.612V220.622Z" fill="#AE7461"/>
<path d="M93.3563 220.622C93.3563 220.622 93.1957 220.82 92.9594 221.236C92.846 221.444 92.7042 221.718 92.657 222.068C92.6381 222.238 92.6381 222.427 92.7231 222.607C92.8082 222.786 92.9688 222.918 93.1579 223.051C94.7078 224.1 97.184 225.347 100.322 226.907L100.35 226.926L100.369 226.954C101.248 228.126 102.24 229.449 103.308 230.867L103.355 230.933L103.336 230.99C103.091 231.679 102.382 231.793 101.834 231.812C101.238 231.812 100.681 231.576 100.152 231.387C99.0741 230.971 97.9873 230.489 96.8626 229.969C95.7474 229.44 94.5944 228.901 93.4036 228.343C92.2317 227.795 90.9747 227.134 89.7744 226.633C89.1885 226.491 88.4986 226.756 88.0449 227.2C87.8181 227.427 87.6385 227.71 87.5535 228.013C87.4684 228.296 87.4873 228.693 87.6007 228.901C87.9693 229.411 88.6309 229.837 89.2263 230.243C89.8406 230.649 90.4927 231.037 91.1543 231.405C93.8005 232.908 96.6452 234.316 99.5939 235.715L99.4049 236.15C96.9571 235.242 94.4243 234.307 91.8064 233.39C90.5022 232.936 89.179 232.483 87.8276 232.058C87.1754 231.868 86.4383 231.604 85.8429 231.566C85.2569 231.528 85.2758 232.341 85.5499 232.927C85.72 233.324 85.9941 233.674 86.3154 233.948C86.6178 234.212 87.0904 234.411 87.4779 234.638C88.2906 235.082 89.1034 235.517 89.9068 235.961C91.5134 236.84 93.1012 237.7 94.6606 238.55L94.9063 238.683L94.7362 238.909C94.3392 239.439 93.9517 239.968 93.5548 240.497L93.5076 240.157C94.6511 241.017 95.7947 241.849 96.9288 242.661C97.4958 243.068 98.0629 243.465 98.6299 243.843C99.1875 244.211 99.7924 244.627 100.322 244.845C101.598 245.053 102.968 245.109 104.263 245.204C104.915 245.242 105.567 245.279 106.21 245.317C106.852 245.345 107.495 245.421 108.043 245.279C108.601 245.109 109.054 244.712 109.442 244.278C109.791 243.796 110.103 243.295 110.33 242.737C110.803 241.65 111.086 240.497 111.275 239.373C111.36 238.805 111.436 238.248 111.464 237.69C111.493 237.133 111.521 236.585 111.341 236.103C110.992 235.12 110.255 234.307 109.498 233.655L109.461 233.626L109.442 233.589C107.892 230.498 106.465 227.71 105.075 225.338C104.716 224.771 104.404 224.128 103.941 223.779C103.44 223.467 102.836 223.259 102.287 223.06C101.172 222.673 100.142 222.38 99.2064 222.115C97.3352 221.595 95.8703 221.227 94.8779 220.981C94.0462 220.783 93.6399 220.679 93.3563 220.612C93.3563 220.612 93.4981 220.612 93.7533 220.65C94.0179 220.698 94.3959 220.764 94.8968 220.877C95.8986 221.094 97.373 221.425 99.2537 221.917C100.189 222.172 101.238 222.455 102.363 222.824C102.93 223.022 103.507 223.202 104.093 223.561C104.65 223.996 104.924 224.61 105.312 225.187C106.729 227.559 108.185 230.337 109.754 233.428L109.706 233.362C110.519 234.052 111.285 234.874 111.691 235.97C111.89 236.537 111.871 237.133 111.842 237.7C111.814 238.276 111.738 238.843 111.653 239.429C111.464 240.582 111.181 241.754 110.689 242.898C110.462 243.474 110.132 244.022 109.754 244.542C109.328 245.034 108.818 245.497 108.147 245.695C107.448 245.865 106.805 245.78 106.172 245.761C105.529 245.724 104.877 245.686 104.225 245.648C102.902 245.553 101.598 245.506 100.199 245.289C99.4616 244.996 98.9513 244.608 98.3559 244.23C97.7794 243.843 97.2123 243.446 96.6358 243.049C95.4922 242.236 94.3487 241.404 93.2051 240.544L93.0161 240.403L93.1579 240.214C93.5454 239.684 93.9423 239.165 94.3298 238.626L94.4054 238.985C92.8365 238.134 91.2488 237.265 89.6327 236.395C88.8293 235.961 88.0166 235.517 87.2038 235.072C86.7974 234.836 86.391 234.675 85.9752 234.335C85.5877 234.004 85.2853 233.598 85.0773 233.135C84.9261 232.776 84.8127 232.388 84.86 231.963C84.8694 231.755 84.9734 231.509 85.1529 231.339C85.342 231.16 85.5877 231.103 85.8051 231.094C86.6367 231.15 87.2511 231.415 87.9599 231.604C89.3208 232.029 90.6439 232.483 91.9576 232.946C94.5755 233.872 97.1083 234.798 99.5561 235.715L99.3671 236.15C96.409 234.742 93.5643 233.314 90.9086 231.793C90.247 231.415 89.5949 231.018 88.9617 230.602C88.3379 230.167 87.7047 229.789 87.2038 229.118C86.8258 228.277 87.1754 227.417 87.7236 226.878C88.2812 226.349 89.0656 226.018 89.85 226.207C91.211 226.774 92.3451 227.398 93.5548 227.965C94.7362 228.532 95.8892 229.08 96.9949 229.61C98.1101 230.13 99.197 230.621 100.255 231.037C100.794 231.235 101.305 231.453 101.815 231.453C102.316 231.462 102.883 231.273 103.006 230.905L103.034 231.027C101.985 229.591 101.002 228.268 100.133 227.086L100.18 227.124C97.0422 225.527 94.5944 224.251 93.0445 223.145C92.8554 223.004 92.6664 222.843 92.5814 222.635C92.4963 222.427 92.4963 222.21 92.5247 222.03C92.5908 221.662 92.742 221.387 92.8743 221.18C93.139 220.764 93.3374 220.603 93.3374 220.603L93.3563 220.622Z" fill="#6F4439"/>
<path d="M79.2084 228.428C79.2084 228.428 78.9059 228.135 78.4428 227.54C77.9797 226.944 77.3276 226.066 76.581 224.941C75.0594 222.71 73.1409 219.516 71.0995 215.953C69.0675 212.381 67.2908 209.111 65.9865 206.757C65.3722 205.652 64.8619 204.716 64.446 203.969C64.0775 203.308 63.8979 202.939 63.9262 202.92C63.9546 202.901 64.2003 203.242 64.6162 203.875C65.032 204.508 65.6085 205.434 66.2984 206.587C67.6783 208.903 69.5117 212.144 71.5342 215.707C73.5662 219.27 75.4374 222.484 76.874 224.752C77.5828 225.895 78.1877 226.793 78.6035 227.426C79.0288 228.05 79.2462 228.4 79.2178 228.428H79.2084Z" fill="#263238"/>
<path d="M75.7304 232.029C75.7588 232.105 75.031 232.35 74.0009 232.974C72.9802 233.607 71.6571 234.675 70.7025 236.244C70.23 237.019 69.8898 237.832 69.7007 238.598C69.5117 239.354 69.4739 240.091 69.351 240.705C69.1526 241.981 68.4721 242.557 68.4438 242.491C68.3871 242.444 68.9069 241.858 69.0014 240.648C69.077 240.053 69.0675 239.316 69.2471 238.484C69.4267 237.662 69.7669 236.802 70.2678 235.98C71.279 234.326 72.7156 233.239 73.8119 232.662C74.9271 232.095 75.7021 231.963 75.7115 232.02L75.7304 232.029Z" fill="#263238"/>
<path d="M123.401 186.75C123.438 186.797 122.72 187.525 121.473 188.612C120.225 189.699 118.448 191.135 116.397 192.609C114.347 194.084 112.419 195.312 110.992 196.153C109.564 196.995 108.648 197.448 108.619 197.392C108.582 197.325 109.432 196.768 110.812 195.861C112.192 194.953 114.082 193.687 116.123 192.212C118.165 190.748 119.97 189.358 121.265 188.338C122.559 187.326 123.372 186.693 123.419 186.74L123.401 186.75Z" fill="#263238"/>
<path d="M109.895 201.399C109.961 201.418 109.744 202.41 109.29 203.998C108.837 205.576 108.128 207.74 107.221 210.084C106.313 212.428 105.378 214.507 104.65 215.981C103.922 217.456 103.412 218.344 103.355 218.316C103.289 218.287 103.686 217.352 104.338 215.84C104.981 214.328 105.86 212.239 106.767 209.914C107.665 207.58 108.421 205.444 108.96 203.894C109.498 202.344 109.829 201.38 109.895 201.399Z" fill="#263238"/>
<path d="M117.182 233.976C117.097 234.004 116.88 233.069 116.086 231.802C115.301 230.526 113.884 228.976 111.975 227.71C110.065 226.434 108.128 225.612 106.739 225.017C105.34 224.431 104.461 224.081 104.489 224.015C104.508 223.958 105.425 224.194 106.862 224.695C108.298 225.206 110.283 225.99 112.249 227.304C114.224 228.598 115.66 230.262 116.388 231.632C116.757 232.313 116.974 232.908 117.087 233.324C117.201 233.74 117.22 233.976 117.191 233.985L117.182 233.976Z" fill="#263238"/>
<path d="M69.1333 246.584C69.1333 246.584 68.3111 246.007 67.1297 244.892C65.9483 243.786 64.3795 242.179 62.7823 240.289C61.1851 238.399 59.862 236.594 58.9547 235.242C58.0568 233.891 57.5654 233.022 57.6221 232.984C57.6788 232.946 58.2742 233.749 59.2382 235.035C60.2022 236.32 61.5631 238.087 63.1509 239.958C64.7386 241.83 66.2508 243.465 67.366 244.627C68.4812 245.79 69.1805 246.508 69.1238 246.565L69.1333 246.584Z" fill="#263238"/>
<path d="M61.9792 199.461C62.0076 199.405 62.4045 199.537 62.9527 199.915C63.5008 200.293 64.1719 200.955 64.6822 201.843C65.1926 202.731 65.4194 203.648 65.4666 204.31C65.5139 204.971 65.4194 205.378 65.3627 205.378C65.2115 205.378 65.2303 203.752 64.2569 202.079C63.3118 200.397 61.8942 199.584 61.9792 199.461Z" fill="#263238"/>
<path d="M66.2413 124.383C71.222 118.571 78.0833 115.244 86.126 115.046C90.6625 114.932 90.8231 114.97 94.1026 115.745C97.3821 116.52 102.07 118.902 104.045 121.425C106.389 124.421 108.373 127.776 108.846 131.443C109.337 135.205 110.708 138.626 111.313 143.332C111.795 147.094 115.027 164.219 112.636 167.309L98.1381 169.842C92.3542 170.088 86.3056 170.995 80.654 169.842C75.0023 168.689 61.979 171.808 58.9074 167.309C54.6451 161.053 56.195 136.102 66.2319 124.383H66.2413Z" fill="#263238"/>
<path d="M76.9776 124.998L90.8516 119.308L94.4996 119.696C102.694 119.639 108.43 128.617 108.553 135.242C108.685 142.614 108.563 151.611 107.447 157.055C105.207 167.999 95.8983 169.011 95.8983 169.011C95.8983 169.011 95.9929 170.759 96.1063 174.426C93.6396 180.049 84.2737 180.021 76.2027 173.698L75.9191 173.263L73.3296 128.769C73.3768 126.756 74.9646 125.111 76.9776 124.988V124.998Z" fill="#AE7461"/>
<path d="M103.695 144.438C103.695 145.185 103.052 145.799 102.268 145.808C101.493 145.808 100.86 145.213 100.869 144.466C100.869 143.72 101.512 143.106 102.296 143.096C103.081 143.096 103.705 143.691 103.695 144.438Z" fill="#263238"/>
<path d="M106.096 139.42C105.916 139.599 104.877 138.758 103.355 138.692C101.833 138.607 100.68 139.344 100.529 139.146C100.454 139.061 100.643 138.739 101.144 138.399C101.635 138.068 102.467 137.766 103.421 137.804C104.366 137.851 105.151 138.238 105.595 138.616C106.049 138.994 106.19 139.335 106.105 139.42H106.096Z" fill="#263238"/>
<path d="M96.4558 150.988C96.4558 150.903 97.4009 150.78 98.9509 150.647C99.3383 150.629 99.7164 150.562 99.792 150.298C99.896 150.024 99.7542 149.598 99.5841 149.135C99.2627 148.181 98.9225 147.179 98.5634 146.13C97.1552 141.849 96.1534 138.333 96.3235 138.276C96.4936 138.22 97.7789 141.65 99.1871 145.931C99.5274 146.99 99.8487 147.992 100.151 148.956C100.274 149.4 100.51 149.92 100.283 150.487C100.17 150.77 99.8676 150.969 99.6219 151.025C99.3667 151.092 99.1493 151.082 98.9603 151.092C97.4104 151.111 96.4558 151.073 96.4558 150.988Z" fill="#263238"/>
<path d="M95.9174 169.01C95.9174 169.01 88.4795 169.162 81.3252 164.417C81.3252 164.417 84.9165 172.233 96.0024 171.695L95.9174 169.01Z" fill="#6F4439"/>
<path d="M105.529 136.707C105.255 137.066 104.102 136.764 102.741 136.821C101.37 136.821 100.227 137.18 99.9433 136.83C99.8204 136.66 99.9811 136.301 100.473 135.951C100.955 135.602 101.777 135.29 102.712 135.271C103.648 135.252 104.48 135.526 104.971 135.847C105.472 136.178 105.652 136.528 105.529 136.698V136.707Z" fill="#263238"/>
<path d="M87.8554 144.608C87.8271 145.355 88.432 145.998 89.2069 146.045C89.9819 146.092 90.6435 145.525 90.6718 144.778C90.7002 144.032 90.0953 143.389 89.3203 143.342C88.5359 143.295 87.8838 143.862 87.8554 144.608Z" fill="#263238"/>
<path d="M85.5115 139.344C85.6816 139.533 86.759 138.739 88.2901 138.758C89.8117 138.758 90.9269 139.543 91.0875 139.354C91.1726 139.268 90.993 138.938 90.511 138.579C90.0385 138.219 89.2162 137.87 88.2712 137.87C87.3261 137.87 86.5227 138.21 86.0596 138.569C85.5871 138.928 85.4264 139.259 85.5115 139.344Z" fill="#263238"/>
<path d="M86.3717 133.711C86.6647 134.061 87.8461 133.711 89.2637 133.702C90.6719 133.655 91.8722 133.948 92.1462 133.588C92.2691 133.418 92.0801 133.069 91.5603 132.738C91.0499 132.407 90.1899 132.133 89.2165 132.152C88.243 132.171 87.4019 132.483 86.9104 132.832C86.4095 133.182 86.2394 133.541 86.3717 133.711Z" fill="#263238"/>
<path d="M75.4183 147.273C75.4561 146.451 74.5866 144.476 73.7833 144.315C71.6285 143.881 67.7253 143.881 67.4417 149.381C67.0543 156.894 75.1253 155.817 75.1537 155.6C75.1726 155.43 75.3049 150.109 75.4183 147.273Z" fill="#AE7461"/>
<path d="M72.7815 152.66C72.7815 152.66 72.6492 152.745 72.4224 152.84C72.205 152.925 71.827 152.982 71.4395 152.812C70.6645 152.481 70.0597 151.186 70.088 149.825C70.1069 149.135 70.277 148.493 70.5511 147.973C70.8063 147.434 71.1843 147.065 71.5907 147.018C71.9971 146.943 72.2617 147.198 72.3468 147.415C72.4413 147.633 72.3846 147.774 72.4224 147.793C72.4413 147.812 72.5925 147.68 72.5452 147.358C72.5263 147.207 72.4413 147.028 72.2712 146.876C72.1011 146.725 71.8364 146.631 71.5529 146.65C70.9669 146.659 70.4188 147.169 70.1258 147.746C69.795 148.322 69.5871 149.05 69.5682 149.816C69.5399 151.337 70.2392 152.793 71.3166 153.161C71.8364 153.322 72.2901 153.19 72.5263 153.02C72.7721 152.849 72.8193 152.679 72.791 152.66H72.7815Z" fill="#6F4439"/>
<path d="M95.3974 155.259C95.3974 156.583 94.3294 157.651 93.0063 157.651C91.6832 157.651 90.6152 156.583 90.6152 155.259C90.6152 153.936 91.6832 152.868 93.0063 152.868C94.3294 152.868 95.3974 153.936 95.3974 155.259Z" fill="#6F4439"/>
<path d="M96.1631 155.94C96.1915 156.063 95.7851 156.309 95.0385 156.394C94.3013 156.479 93.2428 156.346 92.2126 155.855C91.1825 155.363 90.417 154.588 90.0673 153.917C89.7082 153.246 89.7176 152.755 89.831 152.727C89.9728 152.679 90.1996 153.048 90.6343 153.511C91.0691 153.984 91.759 154.541 92.6379 154.966C94.4241 155.864 96.0875 155.675 96.1537 155.94H96.1631Z" fill="#263238"/>
<path d="M111.587 133.551C111.086 128.598 108.25 123.863 103.894 120.707C99.5368 117.55 93.715 116.029 88.1201 116.558L78.8204 121.586C76.8735 127.549 78.8109 130.262 81.5233 138.938C85.2659 137.747 92.1461 136.566 96.1155 136.291C95.643 134.307 95.1799 132.322 94.7073 130.347C95.8982 132.067 97.089 133.796 98.2798 135.516C100.387 134.297 101.285 131.727 100.463 129.647C101.295 131.367 101.871 133.173 102.136 135.025C105.321 134.789 108.487 134.297 111.577 133.551H111.587Z" fill="#263238"/>
<path d="M73.7831 144.315C73.7831 144.315 74.7093 148.426 75.3898 147.793C82.5724 141.111 78.8866 132.332 78.5747 132.143L78.7543 123.164L71.1558 125.706L73.7737 144.315H73.7831Z" fill="#263238"/>
<path d="M72.2519 144.164C72.2519 144.164 72.0912 143.899 71.8739 143.389C71.6565 142.879 71.3919 142.123 71.1272 141.178C70.5885 139.278 70.1443 136.547 70.2672 133.513C70.3995 130.489 71.0611 127.795 71.7604 125.952C72.1007 125.026 72.422 124.289 72.6866 123.807C72.9418 123.315 73.093 123.051 73.1308 123.07C73.2064 123.107 72.6866 124.204 72.0912 126.066C71.4958 127.918 70.891 130.564 70.7681 133.541C70.6547 136.509 71.0327 139.202 71.4769 141.093C71.9211 142.992 72.3464 144.136 72.2708 144.164H72.2519Z" fill="#455A64"/>
<path d="M101.03 129.525C100.945 129.553 100.605 128.438 99.7355 126.803C99.3102 125.981 98.7148 125.045 97.987 124.062C97.2404 123.098 96.3426 122.087 95.2935 121.142C94.235 120.206 93.1293 119.431 92.0897 118.798C91.0312 118.184 90.0388 117.702 89.1693 117.38C87.4398 116.709 86.2963 116.501 86.3152 116.407C86.3152 116.369 86.6082 116.407 87.128 116.492C87.6478 116.567 88.3944 116.756 89.2828 117.049C90.1806 117.342 91.2107 117.796 92.307 118.401C93.3939 119.025 94.528 119.809 95.6149 120.764C96.6923 121.728 97.5995 122.777 98.3462 123.778C99.0739 124.799 99.6409 125.773 100.038 126.633C100.435 127.483 100.709 128.201 100.841 128.712C100.983 129.222 101.049 129.506 101.021 129.515L101.03 129.525Z" fill="#455A64"/>
<path d="M108.657 130.583C108.572 130.621 108.137 129.26 106.833 127.427C105.557 125.584 103.299 123.372 100.331 121.643C97.3634 119.904 94.4052 118.855 92.2788 118.089C91.2959 117.739 90.4453 117.437 89.7459 117.191C89.1505 116.974 88.8198 116.842 88.8387 116.804C88.8481 116.775 89.1978 116.842 89.8121 117.002C90.4264 117.163 91.3148 117.409 92.3922 117.749C94.5565 118.429 97.5618 119.441 100.586 121.208C103.61 122.975 105.898 125.291 107.126 127.219C107.75 128.183 108.156 129.024 108.383 129.619C108.61 130.215 108.695 130.564 108.667 130.574L108.657 130.583Z" fill="#455A64"/>
</g>
<defs>
<clipPath id="clip0_409_3104">
<rect width="414.554" height="400" fill="white"/>
</clipPath>
</defs>
</svg>
